<?xml version="1.0" standalone="no"?>
<!DOCTYPE svg PUBLIC "-//W3C//DTD SVG 20010904//EN"
 "http://www.w3.org/TR/2001/REC-SVG-20010904/DTD/svg10.dtd">
<svg version="1.0" xmlns="http://www.w3.org/2000/svg"
 width="338.000000pt" height="338.000000pt" viewBox="0 0 338.000000 338.000000"
 preserveAspectRatio="xMidYMid meet">
<metadata>
Created by potrace 1.14, written by Peter Selinger 2001-2017
</metadata>
<g transform="translate(0.000000,338.000000) scale(0.100000,-0.100000)"
fill="#000000" stroke="none">
<path d="M2378 3213 c-11 -25 -22 -56 -24 -70 -3 -14 -12 -53 -20 -87 -9 -34
-20 -81 -25 -105 -5 -23 -14 -62 -21 -85 -6 -22 -13 -47 -14 -55 -1 -7 -8 -34
-14 -60 -22 -95 3 -155 85 -196 17 -9 56 -11 130 -6 39 2 104 53 120 93 21 53
19 80 -10 173 -14 44 -28 89 -30 100 -3 11 -14 49 -26 85 -11 36 -22 72 -24
80 -6 32 -45 134 -59 155 -23 34 -46 27 -68 -22z"/>
<path d="M3259 3137 c-25 -19 -301 -438 -312 -473 -31 -100 54 -191 183 -199
74 -4 139 37 161 102 13 40 19 132 34 478 4 91 -21 126 -66 92z"/>
<path d="M1534 3034 c-8 -32 -8 -79 -1 -129 7 -44 35 -286 41 -350 9 -94 35
-143 90 -169 47 -22 86 -20 149 7 88 40 128 108 113 192 -6 30 -142 224 -266
379 -73 92 -115 115 -126 70z"/>
<path d="M801 2563 c-6 -11 -4 -29 4 -52 19 -56 225 -464 243 -485 51 -56 129
-62 198 -15 110 75 132 198 49 274 -17 17 -113 81 -211 144 -98 63 -186 120
-194 126 -27 22 -78 26 -89 8z"/>
<path d="M2547 2364 c-1 -1 -38 -5 -82 -8 -95 -7 -128 -12 -215 -32 -36 -9
-72 -17 -80 -19 -116 -26 -397 -159 -490 -232 -212 -165 -320 -278 -439 -457
-27 -41 -145 -271 -146 -286 -1 -3 -11 -34 -22 -70 -23 -69 -53 -181 -58 -215
-1 -11 -6 -45 -11 -75 -10 -65 -12 -375 -2 -440 23 -151 81 -345 138 -463 l33
-67 123 0 123 0 -57 112 c-31 62 -59 122 -64 133 -12 29 -49 147 -54 170 -28
129 -38 220 -38 340 0 80 11 215 19 238 3 7 7 23 9 37 3 14 10 43 16 65 6 22
13 48 15 58 13 55 13 56 63 167 16 36 29 68 28 71 -1 4 6 15 15 25 9 11 24 35
34 54 10 18 23 40 29 47 30 34 36 43 29 43 -4 0 -3 4 2 8 6 4 24 25 40 47 41
55 179 191 245 242 53 40 215 143 225 143 3 0 33 13 67 29 61 27 174 67 214
75 10 3 41 9 68 16 149 34 404 33 570 -1 78 -17 240 -70 248 -83 4 -6 8 -8 8
-3 0 8 151 -66 192 -94 14 -11 29 -19 32 -19 3 0 6 56 6 124 l0 123 -74 37
c-41 20 -78 36 -81 36 -4 0 -21 6 -38 14 -56 24 -150 54 -197 63 -8 1 -37 7
-65 13 -87 18 -99 20 -165 26 -65 6 -209 11 -213 8z"/>
<path d="M280 1865 c-24 -29 -15 -40 260 -305 52 -50 111 -102 130 -116 81
-55 173 -28 223 64 48 89 41 166 -21 225 -28 27 -48 35 -152 59 -25 5 -63 14
-85 19 -22 6 -49 11 -60 13 -11 2 -38 9 -60 14 -22 6 -51 13 -65 16 -14 2 -32
7 -40 10 -39 14 -119 15 -130 1z"/>
<path d="M476 1103 c-2 -2 -19 -6 -37 -8 -59 -8 -133 -17 -159 -20 -29 -3
-150 -18 -165 -20 -5 -1 -22 -3 -36 -3 -14 -1 -35 -11 -47 -22 -42 -40 -24
-52 253 -172 88 -38 176 -77 195 -86 22 -11 59 -17 97 -17 59 0 64 2 97 38 76
83 61 240 -27 292 -22 13 -54 20 -99 20 -38 1 -70 0 -72 -2z"/>
<path d="M560 404 c-36 -9 -241 -108 -293 -141 -6 -4 -14 -8 -17 -8 -3 0 -42
-20 -88 -44 -96 -51 -116 -75 -82 -103 12 -10 30 -18 39 -19 9 0 36 -2 61 -4
25 -2 95 -6 155 -10 61 -3 133 -8 160 -10 142 -12 200 -2 240 39 38 39 44 131
14 202 -35 84 -106 121 -189 98z"/>
</g>
</svg>
