<svg>
    <symbol version="1.1" id="cloudy" xmlns="http://www.w3.org/2000/svg" xmlns:xlink="http://www.w3.org/1999/xlink" x="0px" y="0px" xml:space="preserve" viewBox="0 0 512 512">
    <g id="XMLID_173_">
	<g id="XMLID_174_">
		<path id="XMLID_178_" fill="#F2F2F2" d="M256.1,415.8c-40.4,0-78.8-17.6-106-48.5c-14.6,9.3-31.2,14.2-48.4,14.2
			c-49.8,0-90.3-40.5-90.3-90.3s40.5-90.3,90.3-90.3c10.4,0,20.6,1.8,30.5,5.4c25.1-45.7,72.2-74,123.9-74s98.8,28.2,123.9,74
			c9.9-3.6,20.1-5.4,30.5-5.4c49.8,0,90.3,40.5,90.3,90.3s-40.5,90.3-90.3,90.3c-17.2,0-33.8-4.9-48.4-14.2
			C334.9,398.1,296.5,415.8,256.1,415.8z M151.8,355l2.7,3.2C180,389,217,406.7,256.1,406.7s76.1-17.6,101.6-48.4l2.7-3.2l3.4,2.4
			c13.8,9.7,30,14.9,46.6,14.9c44.8,0,81.2-36.4,81.2-81.2S455.2,210,410.5,210c-10.6,0-21,2.1-30.9,6.2l-3.9,1.6l-1.9-3.7
			c-22.9-44.8-68-72.6-117.7-72.6c-49.6,0-94.7,27.8-117.7,72.7l-1.9,3.7l-3.9-1.6c-9.9-4.1-20.3-6.2-30.9-6.2
			c-44.8,0-81.2,36.4-81.2,81.2s36.4,81.2,81.2,81.2c16.7,0,32.8-5.1,46.6-14.9L151.8,355z"/>
		<g id="XMLID_175_">
			<path id="XMLID_177_" fill="#F2F2F2" d="M256.1,410.3c-39.5-0.4-75.8-17.6-102.1-46.9c-1.6-1.8-4.7-2.1-6.6-0.9
				c-26.8,16.5-60.3,18.1-87.7,2.3c-23.8-13.7-40-38.6-42.4-66c-5.4-61.7,55.8-107.1,113.6-87.3c2.2,0.8,5.1-0.5,6.2-2.5
				c24.2-43.2,69.3-71.3,119.1-71.3c49.9,0,94.9,28,119.1,71.3c1.1,2,3.9,3.3,6.2,2.5c57.7-19.7,119,25.5,113.6,87.3
				c-2.4,27.4-18.7,52.3-42.4,66c-27.5,15.8-61,14.2-87.7-2.3c-2-1.2-5.1-0.9-6.6,0.9C331.9,392.7,295.6,409.9,256.1,410.3
				c-7,0.1-7.1,11,0,10.9c42.3-0.4,81.7-18.7,109.8-50.1c-2.2,0.3-4.4,0.6-6.6,0.9c45.5,28,106.3,14.2,133.7-32.2
				c25.5-43.1,12.4-99.7-28.8-127.9c-25.1-17.2-57.1-20.8-85.7-11c2.1,0.8,4.1,1.7,6.2,2.5c-26-46.5-74.9-76.7-128.6-76.7
				c-53.6,0-102.5,30.2-128.6,76.7c2.1-0.8,4.1-1.7,6.2-2.5c-49.6-17-104.4,8.8-122.2,58.2C-5.6,306.5,18.8,360.2,65,379.6
				c28.8,12.1,61.5,8.7,87.9-7.6c-2.2-0.3-4.4-0.6-6.6-0.9c28.2,31.4,67.6,49.7,109.8,50.1C263.1,421.3,263.2,410.4,256.1,410.3z"/>
			<path id="XMLID_176_" fill="#F2F2F2" d="M147.9,358.9c27,32.6,65.3,53.2,108.2,53.2c42.8,0,81.2-20.7,108.2-53.2
				c-2.2,0.3-4.4,0.6-6.6,0.9c21.1,14.9,45.9,21.6,71.5,16c22.8-4.9,42.9-19.5,55.1-39.2c25.6-41.3,10.8-97.3-31.5-121
				c-24.7-13.8-52.8-13.7-78.6-3.1c2.1,0.8,4.1,1.7,6.2,2.5c-24.2-47.2-70.4-79.1-124.3-79.1S156,167.8,131.8,215
				c2.1-0.8,4.1-1.7,6.2-2.5c-45.7-18.9-98.4,0.2-117,47.3c-17.9,45.3,7,97.5,52.8,113.4c27.9,9.7,57.1,3.3,80.8-13.4
				c5.7-4,0.2-13.5-5.5-9.5c-23.7,16.7-53.1,22.2-79.9,9.2c-24-11.6-40.8-35.5-42.9-62.1c-2.1-26.5,9.9-52.7,31.7-68
				c23.3-16.5,51.3-17.1,77.1-6.4c2.1,0.9,5.2-0.6,6.2-2.5c22.5-43.8,64.6-73.7,114.9-73.7c50.2,0,92.4,29.8,114.8,73.7
				c1,1.9,4.1,3.4,6.2,2.5c25.5-10.5,53-10.2,76.2,5.7c22.3,15.3,34.7,41.8,32.6,68.7c-2.1,26.2-18.4,49.8-41.8,61.5
				c-27.1,13.6-56.9,8.3-81-8.7c-1.8-1.3-5.2-0.9-6.6,0.9c-25.2,30.4-60.3,50-100.4,50s-75.2-19.6-100.4-50
				C151.2,345.7,143.4,353.5,147.9,358.9z"/>
		</g>
	</g>
</g>
    </symbol>
    <symbol version="1.1" id="day_clear" xmlns="http://www.w3.org/2000/svg" xmlns:xlink="http://www.w3.org/1999/xlink" x="0px" y="0px" xml:space="preserve" viewBox="0 0 512 512">
    <g id="XMLID_21_">
		<rect id="XMLID_73_" x="98.8" y="355.8" transform="matrix(-0.7071 -0.7071 0.7071 -0.7071 -93.8457 762.9484)" fill="#FFF200" width="24.6" height="90.1"/>
	<rect id="XMLID_72_" x="243.7" y="415.9" fill="#FFF200" width="24.6" height="90.1"/>
	<rect id="XMLID_71_" x="243.7" y="6" fill="#FFF200" width="24.6" height="90.1"/>
		<rect id="XMLID_70_" x="388.6" y="66" transform="matrix(0.7071 0.7071 -0.7071 0.7071 195.9753 -250.95)" fill="#FFF200" width="24.6" height="90.1"/>
		<rect id="XMLID_69_" x="66" y="98.8" transform="matrix(0.7071 0.7071 -0.7071 0.7071 111.0884 -46.0148)" fill="#FFF200" width="90.1" height="24.6"/>
	<rect id="XMLID_68_" x="6" y="243.7" fill="#FFF200" width="90.1" height="24.6"/>
	<rect id="XMLID_65_" x="415.9" y="243.7" fill="#FFF200" width="90.1" height="24.6"/>
		<rect id="XMLID_64_" x="355.8" y="388.6" transform="matrix(-0.7071 -0.7071 0.7071 -0.7071 400.9116 967.8836)" fill="#FFF200" width="90.1" height="24.6"/>
	<path id="XMLID_24_" fill="#FFF200" d="M256,117.7c-77.1,0-139.9,62.7-139.9,139.9S178.9,397.4,256,397.4s139.9-62.7,139.9-139.9
		S333.1,117.7,256,117.7z M256,372.8c-63.6,0-115.3-51.7-115.3-115.3S192.4,142.2,256,142.2s115.3,51.7,115.3,115.3
		S319.6,372.8,256,372.8z"/>
</g>
    </symbol>
    <symbol version="1.1" id="day_partial_cloud" xmlns="http://www.w3.org/2000/svg" xmlns:xlink="http://www.w3.org/1999/xlink" x="0px" y="0px" xml:space="preserve" viewBox="0 0 512 512">
<g id="XMLID_243_">
	<g id="XMLID_263_">
		<rect id="XMLID_269_" x="141" y="5.6" fill="#FFF200" width="13.9" height="51.1"/>
		
			<rect id="XMLID_268_" x="223.1" y="39.6" transform="matrix(0.7071 0.7071 -0.7071 0.7071 113.4376 -143.6061)" fill="#FFF200" width="13.9" height="51.1"/>
		
			<rect id="XMLID_267_" x="40.3" y="58.2" transform="matrix(0.7071 0.7071 -0.7071 0.7071 65.3387 -27.4852)" fill="#FFF200" width="51.1" height="13.9"/>
		<rect id="XMLID_266_" x="6.3" y="140.3" fill="#FFF200" width="51.1" height="13.9"/>
		<g id="XMLID_264_">
			<path id="XMLID_265_" fill="#FFF200" d="M102.9,195.3c-12.5-11.9-20.3-28.7-20.3-47.2c0-36,29.3-65.3,65.3-65.3
				c32.8,0,60,24.3,64.6,55.8c4.3-1.8,8.8-3.3,13.3-4.6C219.2,97,186.8,68.8,148,68.8c-43.7,0-79.2,35.5-79.2,79.2
				c0,19.5,7.1,37.3,18.7,51.1C92.5,197.5,97.6,196.2,102.9,195.3z"/>
		</g>
	</g>
</g>
<g id="XMLID_173_">
	<g id="XMLID_174_">
		<path id="XMLID_178_" fill="#F1F2F2" d="M256.1,415.8c-40.4,0-78.8-17.6-106-48.5c-14.6,9.3-31.2,14.2-48.4,14.2
			c-49.8,0-90.3-40.5-90.3-90.3s40.5-90.3,90.3-90.3c10.4,0,20.6,1.8,30.5,5.4c25.1-45.7,72.2-74,123.9-74
			c51.7,0,98.8,28.2,123.9,74c9.9-3.6,20.1-5.4,30.5-5.4c49.8,0,90.3,40.5,90.3,90.3s-40.5,90.3-90.3,90.3
			c-17.2,0-33.8-4.9-48.4-14.2C334.9,398.1,296.5,415.8,256.1,415.8z M151.8,355l2.7,3.2C180,389,217,406.7,256.1,406.7
			s76.1-17.6,101.6-48.4l2.7-3.2l3.4,2.4c13.8,9.7,30,14.9,46.6,14.9c44.8,0,81.2-36.4,81.2-81.2S455.2,210,410.5,210
			c-10.6,0-21,2.1-30.9,6.2l-3.9,1.6l-1.9-3.7c-22.9-44.8-68-72.6-117.7-72.6c-49.6,0-94.7,27.8-117.7,72.7l-1.9,3.7l-3.9-1.6
			c-9.9-4.1-20.3-6.2-30.9-6.2c-44.8,0-81.2,36.4-81.2,81.2s36.4,81.2,81.2,81.2c16.7,0,32.8-5.1,46.6-14.9L151.8,355z"/>
		<g id="XMLID_175_">
			<path id="XMLID_177_" fill="#F1F2F2" d="M256.1,410.3c-39.5-0.4-75.8-17.6-102.1-46.9c-1.6-1.8-4.7-2.1-6.6-0.9
				c-26.8,16.5-60.3,18.1-87.7,2.3c-23.8-13.7-40-38.6-42.4-66c-5.4-61.7,55.8-107.1,113.6-87.3c2.2,0.8,5.1-0.5,6.2-2.5
				c24.2-43.2,69.3-71.3,119.1-71.3c49.9,0,94.9,28,119.1,71.3c1.1,2,3.9,3.3,6.2,2.5c57.7-19.7,119,25.5,113.6,87.3
				c-2.4,27.4-18.7,52.3-42.4,66c-27.5,15.8-61,14.2-87.7-2.3c-2-1.2-5.1-0.9-6.6,0.9C331.9,392.7,295.6,409.9,256.1,410.3
				c-7,0.1-7.1,11,0,10.9c42.3-0.4,81.7-18.7,109.8-50.1c-2.2,0.3-4.4,0.6-6.6,0.9c45.5,28,106.3,14.2,133.7-32.2
				c25.5-43.1,12.4-99.7-28.8-127.9c-25.1-17.2-57.1-20.8-85.7-11c2.1,0.8,4.1,1.7,6.2,2.5c-26-46.5-74.9-76.7-128.6-76.7
				c-53.6,0-102.5,30.2-128.6,76.7c2.1-0.8,4.1-1.7,6.2-2.5c-49.6-17-104.4,8.8-122.2,58.2C-5.6,306.5,18.8,360.2,65,379.6
				c28.8,12.1,61.5,8.7,87.9-7.6c-2.2-0.3-4.4-0.6-6.6-0.9c28.2,31.4,67.6,49.7,109.8,50.1C263.1,421.3,263.2,410.4,256.1,410.3z"/>
			<path id="XMLID_176_" fill="#F1F2F2" d="M147.9,358.9c27,32.6,65.3,53.2,108.2,53.2c42.8,0,81.2-20.7,108.2-53.2
				c-2.2,0.3-4.4,0.6-6.6,0.9c21.1,14.9,45.9,21.6,71.5,16c22.8-4.9,42.9-19.5,55.1-39.2c25.6-41.3,10.8-97.3-31.5-121
				c-24.7-13.8-52.8-13.7-78.6-3.1c2.1,0.8,4.1,1.7,6.2,2.5c-24.2-47.2-70.4-79.1-124.3-79.1c-53.9,0-100.1,31.9-124.3,79.1
				c2.1-0.8,4.1-1.7,6.2-2.5c-45.7-18.9-98.4,0.2-117,47.3c-17.9,45.3,7,97.5,52.8,113.4c27.9,9.7,57.1,3.3,80.8-13.4
				c5.7-4,0.2-13.5-5.5-9.5c-23.7,16.7-53.1,22.2-79.9,9.2c-24-11.6-40.8-35.5-42.9-62.1c-2.1-26.5,9.9-52.7,31.7-68
				c23.3-16.5,51.3-17.1,77.1-6.4c2.1,0.9,5.2-0.6,6.2-2.5c22.5-43.8,64.6-73.7,114.9-73.7c50.2,0,92.4,29.8,114.8,73.7
				c1,1.9,4.1,3.4,6.2,2.5c25.5-10.5,53-10.2,76.2,5.7c22.3,15.3,34.7,41.8,32.6,68.7c-2.1,26.2-18.4,49.8-41.8,61.5
				c-27.1,13.6-56.9,8.3-81-8.7c-1.8-1.3-5.2-0.9-6.6,0.9c-25.2,30.4-60.3,50-100.4,50c-40.1,0-75.2-19.6-100.4-50
				C151.2,345.7,143.4,353.5,147.9,358.9z"/>
		</g>
	</g>
</g>
    </symbol>
    <symbol version="1.1" id="day_rain_thunder" xmlns="http://www.w3.org/2000/svg" xmlns:xlink="http://www.w3.org/1999/xlink" x="0px" y="0px" xml:space="preserve" viewBox="0 0 512 512">
    <g id="XMLID_243_">
	<g id="XMLID_263_">
		<rect id="XMLID_269_" x="141" y="5.6" fill="#FFF200" width="13.9" height="51.1"/>
		
			<rect id="XMLID_268_" x="223.1" y="39.6" transform="matrix(0.7071 0.7071 -0.7071 0.7071 113.4376 -143.6061)" fill="#FFF200" width="13.9" height="51.1"/>
		
			<rect id="XMLID_267_" x="40.3" y="58.2" transform="matrix(0.7071 0.7071 -0.7071 0.7071 65.3387 -27.4852)" fill="#FFF200" width="51.1" height="13.9"/>
		<rect id="XMLID_266_" x="6.3" y="140.3" fill="#FFF200" width="51.1" height="13.9"/>
		<g id="XMLID_264_">
			<path id="XMLID_265_" fill="#FFF200" d="M102.9,195.3c-12.5-11.9-20.3-28.7-20.3-47.2c0-36,29.3-65.3,65.3-65.3
				c32.8,0,60,24.3,64.6,55.8c4.3-1.8,8.8-3.3,13.3-4.6C219.2,97,186.8,68.8,148,68.8c-43.7,0-79.2,35.5-79.2,79.2
				c0,19.5,7.1,37.3,18.7,51.1C92.5,197.5,97.6,196.2,102.9,195.3z"/>
		</g>
	</g>
</g>
<g id="XMLID_18_">
	<g id="XMLID_46_">
		<g id="XMLID_49_">
			<path id="XMLID_52_" fill="#F1F2F2" d="M410.4,200.1c-10.4,0-20.7,1.8-30.5,5.4c-25.1-45.7-72.1-74-123.9-74
				c-51.7,0-98.8,28.2-123.9,74c-9.9-3.6-20.1-5.4-30.5-5.4c-49.8,0-90.3,40.5-90.3,90.3s40.5,90.3,90.3,90.3
				c11.8,0,23.4-2.3,34.2-6.8v-10c-10.7,5-22.3,7.7-34.2,7.7c-44.8,0-81.2-36.4-81.2-81.2s36.4-81.2,81.2-81.2
				c10.6,0,21,2.1,30.9,6.2l3.9,1.6l1.9-3.7c23-44.8,68.1-72.7,117.7-72.7c49.6,0,94.7,27.8,117.7,72.7l1.9,3.7l3.9-1.6
				c9.9-4.1,20.3-6.2,30.9-6.2c44.8,0,81.2,36.4,81.2,81.2s-36.4,81.2-81.2,81.2c-11.9,0-23.5-2.6-34.2-7.7v10
				c10.8,4.5,22.4,6.8,34.2,6.8c49.8,0,90.3-40.5,90.3-90.3S460.2,200.1,410.4,200.1z"/>
			<g id="XMLID_50_">
				<path id="XMLID_51_" fill="#F1F2F2" d="M410.4,194.6c-11,0.2-21.6,2-32,5.6c2.1,0.8,4.1,1.7,6.2,2.5c-26-46.5-75-76.7-128.6-76.7
					c-53.6,0-102.6,30.2-128.6,76.7c2.1-0.8,4.1-1.7,6.2-2.5c-47.7-16.3-100.8,6.8-120.4,53.5C-5,297.2,12.4,348.9,53,372.9
					c25.6,15.1,56.8,17.2,84.3,6.3c2.3-0.9,4-2.7,4-5.3c0-3.3,0-6.7,0-10c0-4.5-4.6-6.4-8.2-4.7c-51.6,23.1-110.6-17.3-107-73.8
					c1.5-24.6,15.6-47.3,36.7-59.9c22.6-13.6,48.3-13,72.2-3.2c2.1,0.9,5.2-0.6,6.2-2.5C163.6,175.9,205.8,146,256,146
					c50.2,0,92.4,29.8,114.9,73.7c1,1.9,4.1,3.4,6.2,2.5c23.9-9.9,49.6-10.4,72.2,3.2c21.1,12.6,35.2,35.4,36.7,59.9
					c3.5,56.5-55.5,96.9-107,73.8c-3.7-1.6-8.2,0.2-8.2,4.7c0,3.3,0,6.7,0,10c0,2.6,1.7,4.4,4,5.3c43.6,17.2,94.2,0.3,118.2-40.1
					c22.4-37.9,15.4-87.8-16.5-118.1C458.5,204,435,194.9,410.4,194.6c-7-0.1-7.1,10.9,0,10.9c51.3,0.7,92.3,47.1,83.8,98.5
					c-8.9,54.1-66.3,84.3-116.5,64.6c1.3,1.8,2.7,3.5,4,5.3c0-3.3,0-6.7,0-10c-2.7,1.6-5.5,3.2-8.2,4.7c44.4,19.9,97.4,1,116.7-44.5
					c17.6-41.3-0.5-90.9-40.6-111.1c-24.1-12.2-50.8-11.6-75.5-1.4c2.1,0.8,4.1,1.7,6.2,2.5c-24.2-47.2-70.4-79.1-124.3-79.1
					c-53.9,0-100.1,31.9-124.3,79.1c2.1-0.8,4.1-1.7,6.2-2.5C95,194,44.7,209.3,23.8,252.3c-19.7,40.5-4.5,90.6,34.4,113.2
					c24.8,14.4,54.4,14.8,80.3,3.2c-2.7-1.6-5.5-3.2-8.2-4.7c0,3.3,0,6.7,0,10c1.3-1.8,2.7-3.5,4-5.3c-54.8,21.6-116.7-17-117.6-77
					c-0.8-59.3,58.7-99.9,113.9-81c2.2,0.8,5.1-0.5,6.2-2.5c24.2-43.2,69.3-71.3,119.2-71.3c49.9,0,94.9,28,119.1,71.3
					c1.1,2,3.9,3.3,6.2,2.5c9.5-3.2,19-5,29.1-5.2C417.5,205.4,417.5,194.5,410.4,194.6z"/>
			</g>
		</g>
	</g>
</g>
<path id="XMLID_114_" fill-rule="evenodd" clip-rule="evenodd" fill="#00AEEF" d="M181.3,365.4c3.5,9,13.7,13.4,22.7,9.8c9-3.5,13.4-13.7,9.8-22.7c-3.5-9-29.1-26.1-29.1-26.1
	S177.8,356.4,181.3,365.4z"/>
<g id="XMLID_144_">
	<path id="XMLID_182_" fill="#FFF200" d="M278.1,387l-62.9-77.8l28.3-8.2l-9.7-59.9l62.9,77.8l-28.3,8.2L278.1,387z M226.9,312.8
		l40.5,50.1l-6.6-40.7l24.3-7l-40.5-50.1l6.6,40.7L226.9,312.8z"/>
</g>
<path id="XMLID_1_" fill-rule="evenodd" clip-rule="evenodd" fill="#00AEEF" d="M299.3,365.4c3.5,9,13.7,13.4,22.7,9.8c9-3.5,13.4-13.7,9.8-22.7c-3.5-9-29.1-26.1-29.1-26.1
	S295.8,356.4,299.3,365.4z"/>
    </symbol>
    <symbol version="1.1" id="day_rain" xmlns="http://www.w3.org/2000/svg" xmlns:xlink="http://www.w3.org/1999/xlink" x="0px" y="0px" xml:space="preserve" viewBox="0 0 512 512">
    <g id="XMLID_243_">
	<g id="XMLID_263_">
		<rect id="XMLID_269_" x="141" y="5.6" fill="#FFF200" width="13.9" height="51.1"/>
		
			<rect id="XMLID_268_" x="223.1" y="39.6" transform="matrix(0.7071 0.7071 -0.7071 0.7071 113.4376 -143.6061)" fill="#FFF200" width="13.9" height="51.1"/>
		
			<rect id="XMLID_267_" x="40.3" y="58.2" transform="matrix(0.7071 0.7071 -0.7071 0.7071 65.3387 -27.4852)" fill="#FFF200" width="51.1" height="13.9"/>
		<rect id="XMLID_266_" x="6.3" y="140.3" fill="#FFF200" width="51.1" height="13.9"/>
		<g id="XMLID_264_">
			<path id="XMLID_265_" fill="#FFF200" d="M102.9,195.3c-12.5-11.9-20.3-28.7-20.3-47.2c0-36,29.3-65.3,65.3-65.3
				c32.8,0,60,24.3,64.6,55.8c4.3-1.8,8.8-3.3,13.3-4.6C219.2,97,186.8,68.8,148,68.8c-43.7,0-79.2,35.5-79.2,79.2
				c0,19.5,7.1,37.3,18.7,51.1C92.5,197.5,97.6,196.2,102.9,195.3z"/>
		</g>
	</g>
</g>
<g id="XMLID_18_">
	<g id="XMLID_46_">
		<g id="XMLID_49_">
			<path id="XMLID_52_" fill="#F1F2F2" d="M410.4,200.1c-10.4,0-20.7,1.8-30.5,5.4c-25.1-45.7-72.1-74-123.9-74
				c-51.7,0-98.8,28.2-123.9,74c-9.9-3.6-20.1-5.4-30.5-5.4c-49.8,0-90.3,40.5-90.3,90.3s40.5,90.3,90.3,90.3
				c11.8,0,23.4-2.3,34.2-6.8v-10c-10.7,5-22.3,7.7-34.2,7.7c-44.8,0-81.2-36.4-81.2-81.2s36.4-81.2,81.2-81.2
				c10.6,0,21,2.1,30.9,6.2l3.9,1.6l1.9-3.7c23-44.8,68.1-72.7,117.7-72.7c49.6,0,94.7,27.8,117.7,72.7l1.9,3.7l3.9-1.6
				c9.9-4.1,20.3-6.2,30.9-6.2c44.8,0,81.2,36.4,81.2,81.2s-36.4,81.2-81.2,81.2c-11.9,0-23.5-2.6-34.2-7.7v10
				c10.8,4.5,22.4,6.8,34.2,6.8c49.8,0,90.3-40.5,90.3-90.3S460.2,200.1,410.4,200.1z"/>
			<g id="XMLID_50_">
				<path id="XMLID_51_" fill="#F1F2F2" d="M410.4,194.6c-11,0.2-21.6,2-32,5.6c2.1,0.8,4.1,1.7,6.2,2.5c-26-46.5-75-76.7-128.6-76.7
					c-53.6,0-102.6,30.2-128.6,76.7c2.1-0.8,4.1-1.7,6.2-2.5c-47.7-16.3-100.8,6.8-120.4,53.5C-5,297.2,12.4,348.9,53,372.9
					c25.6,15.1,56.8,17.2,84.3,6.3c2.3-0.9,4-2.7,4-5.3c0-3.3,0-6.7,0-10c0-4.5-4.6-6.4-8.2-4.7c-51.6,23.1-110.6-17.3-107-73.8
					c1.5-24.6,15.6-47.3,36.7-59.9c22.6-13.6,48.3-13,72.2-3.2c2.1,0.9,5.2-0.6,6.2-2.5C163.6,175.9,205.8,146,256,146
					c50.2,0,92.4,29.8,114.9,73.7c1,1.9,4.1,3.4,6.2,2.5c23.9-9.9,49.6-10.4,72.2,3.2c21.1,12.6,35.2,35.4,36.7,59.9
					c3.5,56.5-55.5,96.9-107,73.8c-3.7-1.6-8.2,0.2-8.2,4.7c0,3.3,0,6.7,0,10c0,2.6,1.7,4.4,4,5.3c43.6,17.2,94.2,0.3,118.2-40.1
					c22.4-37.9,15.4-87.8-16.5-118.1C458.5,204,435,194.9,410.4,194.6c-7-0.1-7.1,10.9,0,10.9c51.3,0.7,92.3,47.1,83.8,98.5
					c-8.9,54.1-66.3,84.3-116.5,64.6c1.3,1.8,2.7,3.5,4,5.3c0-3.3,0-6.7,0-10c-2.7,1.6-5.5,3.2-8.2,4.7c44.4,19.9,97.4,1,116.7-44.5
					c17.6-41.3-0.5-90.9-40.6-111.1c-24.1-12.2-50.8-11.6-75.5-1.4c2.1,0.8,4.1,1.7,6.2,2.5c-24.2-47.2-70.4-79.1-124.3-79.1
					c-53.9,0-100.1,31.9-124.3,79.1c2.1-0.8,4.1-1.7,6.2-2.5C95,194,44.7,209.3,23.8,252.3c-19.7,40.5-4.5,90.6,34.4,113.2
					c24.8,14.4,54.4,14.8,80.3,3.2c-2.7-1.6-5.5-3.2-8.2-4.7c0,3.3,0,6.7,0,10c1.3-1.8,2.7-3.5,4-5.3c-54.8,21.6-116.7-17-117.6-77
					c-0.8-59.3,58.7-99.9,113.9-81c2.2,0.8,5.1-0.5,6.2-2.5c24.2-43.2,69.3-71.3,119.2-71.3c49.9,0,94.9,28,119.1,71.3
					c1.1,2,3.9,3.3,6.2,2.5c9.5-3.2,19-5,29.1-5.2C417.5,205.4,417.5,194.5,410.4,194.6z"/>
			</g>
		</g>
	</g>
</g>
<path id="XMLID_114_" fill-rule="evenodd" clip-rule="evenodd" fill="#00AEEF" d="M287,369.2c5.2,13.1,20,19.6,33.2,14.4c13.1-5.2,19.6-20,14.4-33.2
	c-5.2-13.1-42.6-38.2-42.6-38.2S281.8,356.1,287,369.2z"/>
<path id="XMLID_1_" fill-rule="evenodd" clip-rule="evenodd" fill="#00AEEF" d="M180,369.2c5.2,13.1,20,19.6,33.2,14.4c13.1-5.2,19.6-20,14.4-33.2
	c-5.2-13.1-42.6-38.2-42.6-38.2S174.8,356.1,180,369.2z"/>
    </symbol>
    <symbol version="1.1" id="day_sleet" xmlns="http://www.w3.org/2000/svg" xmlns:xlink="http://www.w3.org/1999/xlink" x="0px" y="0px" xml:space="preserve" viewBox="0 0 512 512">
    <g id="XMLID_243_">
	<g id="XMLID_263_">
		<rect id="XMLID_269_" x="141" y="5.6" fill="#FFF200" width="13.9" height="51.1"/>
		
			<rect id="XMLID_268_" x="223.1" y="39.6" transform="matrix(0.7071 0.7071 -0.7071 0.7071 113.4376 -143.6061)" fill="#FFF200" width="13.9" height="51.1"/>
		
			<rect id="XMLID_267_" x="40.3" y="58.2" transform="matrix(0.7071 0.7071 -0.7071 0.7071 65.3387 -27.4852)" fill="#FFF200" width="51.1" height="13.9"/>
		<rect id="XMLID_266_" x="6.3" y="140.3" fill="#FFF200" width="51.1" height="13.9"/>
		<g id="XMLID_264_">
			<path id="XMLID_265_" fill="#FFF200" d="M102.9,195.3c-12.5-11.9-20.3-28.7-20.3-47.2c0-36,29.3-65.3,65.3-65.3
				c32.8,0,60,24.3,64.6,55.8c4.3-1.8,8.8-3.3,13.3-4.6C219.2,97,186.8,68.8,148,68.8c-43.7,0-79.2,35.5-79.2,79.2
				c0,19.5,7.1,37.3,18.7,51.1C92.5,197.5,97.6,196.2,102.9,195.3z"/>
		</g>
	</g>
</g>
<g id="XMLID_18_">
	<g id="XMLID_46_">
		<g id="XMLID_49_">
			<path id="XMLID_52_" fill="#F1F2F2" d="M410.4,200.1c-10.4,0-20.7,1.8-30.5,5.4c-25.1-45.7-72.1-74-123.9-74
				c-51.7,0-98.8,28.2-123.9,74c-9.9-3.6-20.1-5.4-30.5-5.4c-49.8,0-90.3,40.5-90.3,90.3s40.5,90.3,90.3,90.3
				c11.8,0,23.4-2.3,34.2-6.8v-10c-10.7,5-22.3,7.7-34.2,7.7c-44.8,0-81.2-36.4-81.2-81.2s36.4-81.2,81.2-81.2
				c10.6,0,21,2.1,30.9,6.2l3.9,1.6l1.9-3.7c23-44.8,68.1-72.7,117.7-72.7c49.6,0,94.7,27.8,117.7,72.7l1.9,3.7l3.9-1.6
				c9.9-4.1,20.3-6.2,30.9-6.2c44.8,0,81.2,36.4,81.2,81.2s-36.4,81.2-81.2,81.2c-11.9,0-23.5-2.6-34.2-7.7v10
				c10.8,4.5,22.4,6.8,34.2,6.8c49.8,0,90.3-40.5,90.3-90.3S460.2,200.1,410.4,200.1z"/>
			<g id="XMLID_50_">
				<path id="XMLID_51_" fill="#F1F2F2" d="M410.4,194.6c-11,0.2-21.6,2-32,5.6c2.1,0.8,4.1,1.7,6.2,2.5c-26-46.5-75-76.7-128.6-76.7
					c-53.6,0-102.6,30.2-128.6,76.7c2.1-0.8,4.1-1.7,6.2-2.5c-47.7-16.3-100.8,6.8-120.4,53.5C-5,297.2,12.4,348.9,53,372.9
					c25.6,15.1,56.8,17.2,84.3,6.3c2.3-0.9,4-2.7,4-5.3c0-3.3,0-6.7,0-10c0-4.5-4.6-6.4-8.2-4.7c-51.6,23.1-110.6-17.3-107-73.8
					c1.5-24.6,15.6-47.3,36.7-59.9c22.6-13.6,48.3-13,72.2-3.2c2.1,0.9,5.2-0.6,6.2-2.5C163.6,175.9,205.8,146,256,146
					c50.2,0,92.4,29.8,114.9,73.7c1,1.9,4.1,3.4,6.2,2.5c23.9-9.9,49.6-10.4,72.2,3.2c21.1,12.6,35.2,35.4,36.7,59.9
					c3.5,56.5-55.5,96.9-107,73.8c-3.7-1.6-8.2,0.2-8.2,4.7c0,3.3,0,6.7,0,10c0,2.6,1.7,4.4,4,5.3c43.6,17.2,94.2,0.3,118.2-40.1
					c22.4-37.9,15.4-87.8-16.5-118.1C458.5,204,435,194.9,410.4,194.6c-7-0.1-7.1,10.9,0,10.9c51.3,0.7,92.3,47.1,83.8,98.5
					c-8.9,54.1-66.3,84.3-116.5,64.6c1.3,1.8,2.7,3.5,4,5.3c0-3.3,0-6.7,0-10c-2.7,1.6-5.5,3.2-8.2,4.7c44.4,19.9,97.4,1,116.7-44.5
					c17.6-41.3-0.5-90.9-40.6-111.1c-24.1-12.2-50.8-11.6-75.5-1.4c2.1,0.8,4.1,1.7,6.2,2.5c-24.2-47.2-70.4-79.1-124.3-79.1
					c-53.9,0-100.1,31.9-124.3,79.1c2.1-0.8,4.1-1.7,6.2-2.5C95,194,44.7,209.3,23.8,252.3c-19.7,40.5-4.5,90.6,34.4,113.2
					c24.8,14.4,54.4,14.8,80.3,3.2c-2.7-1.6-5.5-3.2-8.2-4.7c0,3.3,0,6.7,0,10c1.3-1.8,2.7-3.5,4-5.3c-54.8,21.6-116.7-17-117.6-77
					c-0.8-59.3,58.7-99.9,113.9-81c2.2,0.8,5.1-0.5,6.2-2.5c24.2-43.2,69.3-71.3,119.2-71.3c49.9,0,94.9,28,119.1,71.3
					c1.1,2,3.9,3.3,6.2,2.5c9.5-3.2,19-5,29.1-5.2C417.5,205.4,417.5,194.5,410.4,194.6z"/>
			</g>
		</g>
	</g>
</g>
<path id="XMLID_114_" fill-rule="evenodd" clip-rule="evenodd" fill="#00AEEF" d="M287,369.2c5.2,13.1,20,19.6,33.2,14.4c13.1-5.2,19.6-20,14.4-33.2
	c-5.2-13.1-42.6-38.2-42.6-38.2S281.8,356.1,287,369.2z"/>
<g id="XMLID_135_">
	<path id="XMLID_139_" fill="#F1F2F2" d="M205.8,385.9h-5.1c-1.1,0-1.9-0.9-1.9-1.9v-65.1c0-1.1,0.9-1.9,1.9-1.9h5.1
		c1.1,0,1.9,0.9,1.9,1.9V384C207.7,385,206.9,385.9,205.8,385.9z"/>
	<path id="XMLID_138_" fill="#F1F2F2" d="M168.8,353.9v-5.1c0-1.1,0.9-1.9,1.9-1.9h65.1c1.1,0,1.9,0.9,1.9,1.9v5.1
		c0,1.1-0.9,1.9-1.9,1.9h-65.1C169.7,355.9,168.8,355,168.8,353.9z"/>
	<path id="XMLID_137_" fill="#F1F2F2" d="M180.7,377.6l-3.6-3.6c-0.7-0.7-0.7-2,0-2.7l46-46c0.7-0.7,2-0.7,2.7,0l3.6,3.6
		c0.7,0.7,0.7,2,0,2.7l-46,46C182.7,378.3,181.4,378.3,180.7,377.6z"/>
	<path id="XMLID_136_" fill="#F1F2F2" d="M177.1,328.8l3.6-3.6c0.7-0.7,2-0.7,2.7,0l46,46c0.7,0.7,0.7,2,0,2.7l-3.6,3.6
		c-0.7,0.7-2,0.7-2.7,0l-46-46C176.4,330.8,176.4,329.6,177.1,328.8z"/>
</g>
    </symbol>
    <symbol version="1.1" id="day_snow_thunder" xmlns="http://www.w3.org/2000/svg" xmlns:xlink="http://www.w3.org/1999/xlink" x="0px" y="0px" xml:space="preserve" viewBox="0 0 512 512">
    <g id="XMLID_243_">
	<g id="XMLID_263_">
		<rect id="XMLID_269_" x="141" y="5.6" fill="#FFF200" width="13.9" height="51.1"/>
		
			<rect id="XMLID_268_" x="223.1" y="39.6" transform="matrix(0.7071 0.7071 -0.7071 0.7071 113.4376 -143.6061)" fill="#FFF200" width="13.9" height="51.1"/>
		
			<rect id="XMLID_267_" x="40.3" y="58.2" transform="matrix(0.7071 0.7071 -0.7071 0.7071 65.3387 -27.4852)" fill="#FFF200" width="51.1" height="13.9"/>
		<rect id="XMLID_266_" x="6.3" y="140.3" fill="#FFF200" width="51.1" height="13.9"/>
		<g id="XMLID_264_">
			<path id="XMLID_265_" fill="#FFF200" d="M102.9,195.3c-12.5-11.9-20.3-28.7-20.3-47.2c0-36,29.3-65.3,65.3-65.3
				c32.8,0,60,24.3,64.6,55.8c4.3-1.8,8.8-3.3,13.3-4.6C219.2,97,186.8,68.8,148,68.8c-43.7,0-79.2,35.5-79.2,79.2
				c0,19.5,7.1,37.3,18.7,51.1C92.5,197.5,97.6,196.2,102.9,195.3z"/>
		</g>
	</g>
</g>
<g id="XMLID_18_">
	<g id="XMLID_46_">
		<g id="XMLID_49_">
			<path id="XMLID_52_" fill="#F1F2F2" d="M410.4,200.1c-10.4,0-20.7,1.8-30.5,5.4c-25.1-45.7-72.1-74-123.9-74
				c-51.7,0-98.8,28.2-123.9,74c-9.9-3.6-20.1-5.4-30.5-5.4c-49.8,0-90.3,40.5-90.3,90.3s40.5,90.3,90.3,90.3
				c11.8,0,23.4-2.3,34.2-6.8v-10c-10.7,5-22.3,7.7-34.2,7.7c-44.8,0-81.2-36.4-81.2-81.2s36.4-81.2,81.2-81.2
				c10.6,0,21,2.1,30.9,6.2l3.9,1.6l1.9-3.7c23-44.8,68.1-72.7,117.7-72.7c49.6,0,94.7,27.8,117.7,72.7l1.9,3.7l3.9-1.6
				c9.9-4.1,20.3-6.2,30.9-6.2c44.8,0,81.2,36.4,81.2,81.2s-36.4,81.2-81.2,81.2c-11.9,0-23.5-2.6-34.2-7.7v10
				c10.8,4.5,22.4,6.8,34.2,6.8c49.8,0,90.3-40.5,90.3-90.3S460.2,200.1,410.4,200.1z"/>
			<g id="XMLID_50_">
				<path id="XMLID_51_" fill="#F1F2F2" d="M410.4,194.6c-11,0.2-21.6,2-32,5.6c2.1,0.8,4.1,1.7,6.2,2.5c-26-46.5-75-76.7-128.6-76.7
					c-53.6,0-102.6,30.2-128.6,76.7c2.1-0.8,4.1-1.7,6.2-2.5c-47.7-16.3-100.8,6.8-120.4,53.5C-5,297.2,12.4,348.9,53,372.9
					c25.6,15.1,56.8,17.2,84.3,6.3c2.3-0.9,4-2.7,4-5.3c0-3.3,0-6.7,0-10c0-4.5-4.6-6.4-8.2-4.7c-51.6,23.1-110.6-17.3-107-73.8
					c1.5-24.6,15.6-47.3,36.7-59.9c22.6-13.6,48.3-13,72.2-3.2c2.1,0.9,5.2-0.6,6.2-2.5C163.6,175.9,205.8,146,256,146
					c50.2,0,92.4,29.8,114.9,73.7c1,1.9,4.1,3.4,6.2,2.5c23.9-9.9,49.6-10.4,72.2,3.2c21.1,12.6,35.2,35.4,36.7,59.9
					c3.5,56.5-55.5,96.9-107,73.8c-3.7-1.6-8.2,0.2-8.2,4.7c0,3.3,0,6.7,0,10c0,2.6,1.7,4.4,4,5.3c43.6,17.2,94.2,0.3,118.2-40.1
					c22.4-37.9,15.4-87.8-16.5-118.1C458.5,204,435,194.9,410.4,194.6c-7-0.1-7.1,10.9,0,10.9c51.3,0.7,92.3,47.1,83.8,98.5
					c-8.9,54.1-66.3,84.3-116.5,64.6c1.3,1.8,2.7,3.5,4,5.3c0-3.3,0-6.7,0-10c-2.7,1.6-5.5,3.2-8.2,4.7c44.4,19.9,97.4,1,116.7-44.5
					c17.6-41.3-0.5-90.9-40.6-111.1c-24.1-12.2-50.8-11.6-75.5-1.4c2.1,0.8,4.1,1.7,6.2,2.5c-24.2-47.2-70.4-79.1-124.3-79.1
					c-53.9,0-100.1,31.9-124.3,79.1c2.1-0.8,4.1-1.7,6.2-2.5C95,194,44.7,209.3,23.8,252.3c-19.7,40.5-4.5,90.6,34.4,113.2
					c24.8,14.4,54.4,14.8,80.3,3.2c-2.7-1.6-5.5-3.2-8.2-4.7c0,3.3,0,6.7,0,10c1.3-1.8,2.7-3.5,4-5.3c-54.8,21.6-116.7-17-117.6-77
					c-0.8-59.3,58.7-99.9,113.9-81c2.2,0.8,5.1-0.5,6.2-2.5c24.2-43.2,69.3-71.3,119.2-71.3c49.9,0,94.9,28,119.1,71.3
					c1.1,2,3.9,3.3,6.2,2.5c9.5-3.2,19-5,29.1-5.2C417.5,205.4,417.5,194.5,410.4,194.6z"/>
			</g>
		</g>
	</g>
</g>
<g id="XMLID_135_">
	<path id="XMLID_139_" fill="#F1F2F2" d="M199,376.4h-2.6c-1.1,0-1.9-0.9-1.9-1.9v-46.2c0-1.1,0.9-1.9,1.9-1.9h2.6
		c1.1,0,1.9,0.9,1.9,1.9v46.2C200.9,375.6,200.1,376.4,199,376.4z"/>
	<path id="XMLID_138_" fill="#F1F2F2" d="M172.7,352.7v-2.6c0-1.1,0.9-1.9,1.9-1.9h46.2c1.1,0,1.9,0.9,1.9,1.9v2.6
		c0,1.1-0.9,1.9-1.9,1.9h-46.2C173.6,354.6,172.7,353.8,172.7,352.7z"/>
	<path id="XMLID_137_" fill="#F1F2F2" d="M180.9,370l-1.9-1.9c-0.7-0.7-0.7-2,0-2.7l32.6-32.6c0.7-0.7,2-0.7,2.7,0l1.9,1.9
		c0.7,0.7,0.7,2,0,2.7L183.7,370C182.9,370.8,181.7,370.8,180.9,370z"/>
	<path id="XMLID_136_" fill="#F1F2F2" d="M179.1,334.7l1.9-1.9c0.7-0.7,2-0.7,2.7,0l32.6,32.6c0.7,0.7,0.7,2,0,2.7l-1.9,1.9
		c-0.7,0.7-2,0.7-2.7,0l-32.6-32.6C178.3,336.6,178.3,335.4,179.1,334.7z"/>
</g>
<g id="XMLID_1_">
	<path id="XMLID_5_" fill="#F1F2F2" d="M315.2,376.4h-2.6c-1.1,0-1.9-0.9-1.9-1.9v-46.2c0-1.1,0.9-1.9,1.9-1.9h2.6
		c1.1,0,1.9,0.9,1.9,1.9v46.2C317.1,375.6,316.2,376.4,315.2,376.4z"/>
	<path id="XMLID_4_" fill="#F1F2F2" d="M288.9,352.7v-2.6c0-1.1,0.9-1.9,1.9-1.9h46.2c1.1,0,1.9,0.9,1.9,1.9v2.6c0,1.1-0.9,1.9-1.9,1.9
		h-46.2C289.7,354.6,288.9,353.8,288.9,352.7z"/>
	<path id="XMLID_3_" fill="#F1F2F2" d="M297.1,370l-1.9-1.9c-0.7-0.7-0.7-2,0-2.7l32.6-32.6c0.7-0.7,2-0.7,2.7,0l1.9,1.9
		c0.7,0.7,0.7,2,0,2.7L299.8,370C299.1,370.8,297.9,370.8,297.1,370z"/>
	<path id="XMLID_2_" fill="#F1F2F2" d="M295.3,334.7l1.9-1.9c0.7-0.7,2-0.7,2.7,0l32.6,32.6c0.7,0.7,0.7,2,0,2.7l-1.9,1.9
		c-0.7,0.7-2,0.7-2.7,0l-32.6-32.6C294.5,336.6,294.5,335.4,295.3,334.7z"/>
</g>
<g id="XMLID_144_">
	<path id="XMLID_182_" fill="#FFF200" d="M278.1,387l-62.9-77.8l28.3-8.2l-9.7-59.9l62.9,77.8l-28.3,8.2L278.1,387z M226.9,312.8
		l40.5,50.1l-6.6-40.7l24.3-7l-40.5-50.1l6.6,40.7L226.9,312.8z"/>
</g>
    </symbol>
    <symbol version="1.1" id="day_snow" xmlns="http://www.w3.org/2000/svg" xmlns:xlink="http://www.w3.org/1999/xlink" x="0px" y="0px" xml:space="preserve" viewBox="0 0 512 512">
    <g id="XMLID_243_">
	<g id="XMLID_263_">
		<rect id="XMLID_269_" x="141" y="5.6" fill="#FFF200" width="13.9" height="51.1"/>
		
			<rect id="XMLID_268_" x="223.1" y="39.6" transform="matrix(0.7071 0.7071 -0.7071 0.7071 113.4376 -143.6061)" fill="#FFF200" width="13.9" height="51.1"/>
		
			<rect id="XMLID_267_" x="40.3" y="58.2" transform="matrix(0.7071 0.7071 -0.7071 0.7071 65.3387 -27.4852)" fill="#FFF200" width="51.1" height="13.9"/>
		<rect id="XMLID_266_" x="6.3" y="140.3" fill="#FFF200" width="51.1" height="13.9"/>
		<g id="XMLID_264_">
			<path id="XMLID_265_" fill="#FFF200" d="M102.9,195.3c-12.5-11.9-20.3-28.7-20.3-47.2c0-36,29.3-65.3,65.3-65.3
				c32.8,0,60,24.3,64.6,55.8c4.3-1.8,8.8-3.3,13.3-4.6C219.2,97,186.8,68.8,148,68.8c-43.7,0-79.2,35.5-79.2,79.2
				c0,19.5,7.1,37.3,18.7,51.1C92.5,197.5,97.6,196.2,102.9,195.3z"/>
		</g>
	</g>
</g>
<g id="XMLID_18_">
	<g id="XMLID_46_">
		<g id="XMLID_49_">
			<path id="XMLID_52_" fill="#F1F2F2" d="M410.4,200.1c-10.4,0-20.7,1.8-30.5,5.4c-25.1-45.7-72.1-74-123.9-74
				c-51.7,0-98.8,28.2-123.9,74c-9.9-3.6-20.1-5.4-30.5-5.4c-49.8,0-90.3,40.5-90.3,90.3s40.5,90.3,90.3,90.3
				c11.8,0,23.4-2.3,34.2-6.8v-10c-10.7,5-22.3,7.7-34.2,7.7c-44.8,0-81.2-36.4-81.2-81.2s36.4-81.2,81.2-81.2
				c10.6,0,21,2.1,30.9,6.2l3.9,1.6l1.9-3.7c23-44.8,68.1-72.7,117.7-72.7c49.6,0,94.7,27.8,117.7,72.7l1.9,3.7l3.9-1.6
				c9.9-4.1,20.3-6.2,30.9-6.2c44.8,0,81.2,36.4,81.2,81.2s-36.4,81.2-81.2,81.2c-11.9,0-23.5-2.6-34.2-7.7v10
				c10.8,4.5,22.4,6.8,34.2,6.8c49.8,0,90.3-40.5,90.3-90.3S460.2,200.1,410.4,200.1z"/>
			<g id="XMLID_50_">
				<path id="XMLID_51_" fill="#F1F2F2" d="M410.4,194.6c-11,0.2-21.6,2-32,5.6c2.1,0.8,4.1,1.7,6.2,2.5c-26-46.5-75-76.7-128.6-76.7
					c-53.6,0-102.6,30.2-128.6,76.7c2.1-0.8,4.1-1.7,6.2-2.5c-47.7-16.3-100.8,6.8-120.4,53.5C-5,297.2,12.4,348.9,53,372.9
					c25.6,15.1,56.8,17.2,84.3,6.3c2.3-0.9,4-2.7,4-5.3c0-3.3,0-6.7,0-10c0-4.5-4.6-6.4-8.2-4.7c-51.6,23.1-110.6-17.3-107-73.8
					c1.5-24.6,15.6-47.3,36.7-59.9c22.6-13.6,48.3-13,72.2-3.2c2.1,0.9,5.2-0.6,6.2-2.5C163.6,175.9,205.8,146,256,146
					c50.2,0,92.4,29.8,114.9,73.7c1,1.9,4.1,3.4,6.2,2.5c23.9-9.9,49.6-10.4,72.2,3.2c21.1,12.6,35.2,35.4,36.7,59.9
					c3.5,56.5-55.5,96.9-107,73.8c-3.7-1.6-8.2,0.2-8.2,4.7c0,3.3,0,6.7,0,10c0,2.6,1.7,4.4,4,5.3c43.6,17.2,94.2,0.3,118.2-40.1
					c22.4-37.9,15.4-87.8-16.5-118.1C458.5,204,435,194.9,410.4,194.6c-7-0.1-7.1,10.9,0,10.9c51.3,0.7,92.3,47.1,83.8,98.5
					c-8.9,54.1-66.3,84.3-116.5,64.6c1.3,1.8,2.7,3.5,4,5.3c0-3.3,0-6.7,0-10c-2.7,1.6-5.5,3.2-8.2,4.7c44.4,19.9,97.4,1,116.7-44.5
					c17.6-41.3-0.5-90.9-40.6-111.1c-24.1-12.2-50.8-11.6-75.5-1.4c2.1,0.8,4.1,1.7,6.2,2.5c-24.2-47.2-70.4-79.1-124.3-79.1
					c-53.9,0-100.1,31.9-124.3,79.1c2.1-0.8,4.1-1.7,6.2-2.5C95,194,44.7,209.3,23.8,252.3c-19.7,40.5-4.5,90.6,34.4,113.2
					c24.8,14.4,54.4,14.8,80.3,3.2c-2.7-1.6-5.5-3.2-8.2-4.7c0,3.3,0,6.7,0,10c1.3-1.8,2.7-3.5,4-5.3c-54.8,21.6-116.7-17-117.6-77
					c-0.8-59.3,58.7-99.9,113.9-81c2.2,0.8,5.1-0.5,6.2-2.5c24.2-43.2,69.3-71.3,119.2-71.3c49.9,0,94.9,28,119.1,71.3
					c1.1,2,3.9,3.3,6.2,2.5c9.5-3.2,19-5,29.1-5.2C417.5,205.4,417.5,194.5,410.4,194.6z"/>
			</g>
		</g>
	</g>
</g>
<g id="XMLID_135_">
	<path id="XMLID_139_" fill="#F1F2F2" d="M205.8,385.9h-5.1c-1.1,0-1.9-0.9-1.9-1.9v-65.1c0-1.1,0.9-1.9,1.9-1.9h5.1
		c1.1,0,1.9,0.9,1.9,1.9V384C207.7,385,206.9,385.9,205.8,385.9z"/>
	<path id="XMLID_138_" fill="#F1F2F2" d="M168.8,353.9v-5.1c0-1.1,0.9-1.9,1.9-1.9h65.1c1.1,0,1.9,0.9,1.9,1.9v5.1
		c0,1.1-0.9,1.9-1.9,1.9h-65.1C169.7,355.9,168.8,355,168.8,353.9z"/>
	<path id="XMLID_137_" fill="#F1F2F2" d="M180.7,377.6l-3.6-3.6c-0.7-0.7-0.7-2,0-2.7l46-46c0.7-0.7,2-0.7,2.7,0l3.6,3.6
		c0.7,0.7,0.7,2,0,2.7l-46,46C182.7,378.3,181.4,378.3,180.7,377.6z"/>
	<path id="XMLID_136_" fill="#F1F2F2" d="M177.1,328.8l3.6-3.6c0.7-0.7,2-0.7,2.7,0l46,46c0.7,0.7,0.7,2,0,2.7l-3.6,3.6
		c-0.7,0.7-2,0.7-2.7,0l-46-46C176.4,330.8,176.4,329.6,177.1,328.8z"/>
</g>
<g id="XMLID_1_">
	<path id="XMLID_5_" fill="#F1F2F2" d="M310.8,385.9h-5.1c-1.1,0-1.9-0.9-1.9-1.9v-65.1c0-1.1,0.9-1.9,1.9-1.9h5.1
		c1.1,0,1.9,0.9,1.9,1.9V384C312.7,385,311.9,385.9,310.8,385.9z"/>
	<path id="XMLID_4_" fill="#F1F2F2" d="M273.8,353.9v-5.1c0-1.1,0.9-1.9,1.9-1.9h65.1c1.1,0,1.9,0.9,1.9,1.9v5.1c0,1.1-0.9,1.9-1.9,1.9
		h-65.1C274.7,355.9,273.8,355,273.8,353.9z"/>
	<path id="XMLID_3_" fill="#F1F2F2" d="M285.7,377.6l-3.6-3.6c-0.7-0.7-0.7-2,0-2.7l46-46c0.7-0.7,2-0.7,2.7,0l3.6,3.6
		c0.7,0.7,0.7,2,0,2.7l-46,46C287.7,378.3,286.4,378.3,285.7,377.6z"/>
	<path id="XMLID_2_" fill="#F1F2F2" d="M282.1,328.8l3.6-3.6c0.7-0.7,2-0.7,2.7,0l46,46c0.7,0.7,0.7,2,0,2.7l-3.6,3.6
		c-0.7,0.7-2,0.7-2.7,0l-46-46C281.4,330.8,281.4,329.6,282.1,328.8z"/>
</g>
    </symbol>
    <symbol version="1.1" id="fog" xmlns="http://www.w3.org/2000/svg" xmlns:xlink="http://www.w3.org/1999/xlink" x="0px" y="0px" xml:space="preserve" viewBox="0 0 512 512">
    <g id="XMLID_18_">
	<g id="XMLID_46_">
		<g id="XMLID_49_">
			<path id="XMLID_52_" fill="#F2F2F2" d="M410.4,200.1c-10.4,0-20.7,1.8-30.5,5.4c-25.1-45.7-72.1-74-123.9-74
				c-51.7,0-98.8,28.2-123.9,74c-9.9-3.6-20.1-5.4-30.5-5.4c-49.8,0-90.3,40.5-90.3,90.3s40.5,90.3,90.3,90.3
				c11.8,0,23.4-2.3,34.2-6.8v-10c-10.7,5-22.3,7.7-34.2,7.7c-44.8,0-81.2-36.4-81.2-81.2s36.4-81.2,81.2-81.2
				c10.6,0,21,2.1,30.9,6.2l3.9,1.6l1.9-3.7c23-44.8,68.1-72.7,117.7-72.7s94.7,27.8,117.7,72.7l1.9,3.7l3.9-1.6
				c9.9-4.1,20.3-6.2,30.9-6.2c44.8,0,81.2,36.4,81.2,81.2s-36.4,81.2-81.2,81.2c-11.9,0-23.5-2.6-34.2-7.7v10
				c10.8,4.5,22.4,6.8,34.2,6.8c49.8,0,90.3-40.5,90.3-90.3S460.2,200.1,410.4,200.1z"/>
			<g id="XMLID_50_">
				<path id="XMLID_51_" fill="#F2F2F2" d="M410.4,194.6c-11,0.2-21.6,2-32,5.6c2.1,0.8,4.1,1.7,6.2,2.5c-26-46.5-75-76.7-128.6-76.7
					s-102.6,30.2-128.6,76.7c2.1-0.8,4.1-1.7,6.2-2.5C85.9,183.9,32.8,207,13.2,253.7C-5,297.2,12.4,348.9,53,372.9
					c25.6,15.1,56.8,17.2,84.3,6.3c2.3-0.9,4-2.7,4-5.3c0-3.3,0-6.7,0-10c0-4.5-4.6-6.4-8.2-4.7c-51.6,23.1-110.6-17.3-107-73.8
					c1.5-24.6,15.6-47.3,36.7-59.9c22.6-13.6,48.3-13,72.2-3.2c2.1,0.9,5.2-0.6,6.2-2.5C163.6,175.9,205.8,146,256,146
					s92.4,29.8,114.9,73.7c1,1.9,4.1,3.4,6.2,2.5c23.9-9.9,49.6-10.4,72.2,3.2c21.1,12.6,35.2,35.4,36.7,59.9
					c3.5,56.5-55.5,96.9-107,73.8c-3.7-1.6-8.2,0.2-8.2,4.7c0,3.3,0,6.7,0,10c0,2.6,1.7,4.4,4,5.3c43.6,17.2,94.2,0.3,118.2-40.1
					c22.4-37.9,15.4-87.8-16.5-118.1C458.5,204,435,194.9,410.4,194.6c-7-0.1-7.1,10.9,0,10.9c51.3,0.7,92.3,47.1,83.8,98.5
					c-8.9,54.1-66.3,84.3-116.5,64.6c1.3,1.8,2.7,3.5,4,5.3c0-3.3,0-6.7,0-10c-2.7,1.6-5.5,3.2-8.2,4.7c44.4,19.9,97.4,1,116.7-44.5
					c17.6-41.3-0.5-90.9-40.6-111.1c-24.1-12.2-50.8-11.6-75.5-1.4c2.1,0.8,4.1,1.7,6.2,2.5C356.1,166.9,309.9,135,256,135
					s-100.1,31.9-124.3,79.1c2.1-0.8,4.1-1.7,6.2-2.5C95,194,44.7,209.3,23.8,252.3c-19.7,40.5-4.5,90.6,34.4,113.2
					c24.8,14.4,54.4,14.8,80.3,3.2c-2.7-1.6-5.5-3.2-8.2-4.7c0,3.3,0,6.7,0,10c1.3-1.8,2.7-3.5,4-5.3c-54.8,21.6-116.7-17-117.6-77
					c-0.8-59.3,58.7-99.9,113.9-81c2.2,0.8,5.1-0.5,6.2-2.5C161,165,206.1,136.9,256,136.9s94.9,28,119.1,71.3
					c1.1,2,3.9,3.3,6.2,2.5c9.5-3.2,19-5,29.1-5.2C417.5,205.4,417.5,194.5,410.4,194.6z"/>
			</g>
		</g>
	</g>
</g>
<rect id="XMLID_505_" x="191.4" y="333.6" fill="#F1F2F2" width="129.2" height="16.1"/>
<rect id="XMLID_504_" x="191.4" y="295.2" fill="#F1F2F2" width="129.2" height="16.1"/>
<rect id="XMLID_511_" x="191.4" y="370" fill="#F1F2F2" width="129.2" height="16.1"/>
    </symbol>
    <symbol version="1.1" id="mist" xmlns="http://www.w3.org/2000/svg" xmlns:xlink="http://www.w3.org/1999/xlink" x="0px" y="0px" xml:space="preserve" viewBox="0 0 512 512">
    <g id="XMLID_18_">
	<g id="XMLID_46_">
		<g id="XMLID_49_">
			<path id="XMLID_52_" fill="#F2F2F2" d="M410.4,200.1c-10.4,0-20.7,1.8-30.5,5.4c-25.1-45.7-72.1-74-123.9-74
				c-51.7,0-98.8,28.2-123.9,74c-9.9-3.6-20.1-5.4-30.5-5.4c-49.8,0-90.3,40.5-90.3,90.3s40.5,90.3,90.3,90.3
				c11.8,0,23.4-2.3,34.2-6.8v-10c-10.7,5-22.3,7.7-34.2,7.7c-44.8,0-81.2-36.4-81.2-81.2s36.4-81.2,81.2-81.2
				c10.6,0,21,2.1,30.9,6.2l3.9,1.6l1.9-3.7c23-44.8,68.1-72.7,117.7-72.7s94.7,27.8,117.7,72.7l1.9,3.7l3.9-1.6
				c9.9-4.1,20.3-6.2,30.9-6.2c44.8,0,81.2,36.4,81.2,81.2s-36.4,81.2-81.2,81.2c-11.9,0-23.5-2.6-34.2-7.7v10
				c10.8,4.5,22.4,6.8,34.2,6.8c49.8,0,90.3-40.5,90.3-90.3S460.2,200.1,410.4,200.1z"/>
			<g id="XMLID_50_">
				<path id="XMLID_51_" fill="#F2F2F2" d="M410.4,194.6c-11,0.2-21.6,2-32,5.6c2.1,0.8,4.1,1.7,6.2,2.5c-26-46.5-75-76.7-128.6-76.7
					s-102.6,30.2-128.6,76.7c2.1-0.8,4.1-1.7,6.2-2.5C85.9,183.9,32.8,207,13.2,253.7C-5,297.2,12.4,348.9,53,372.9
					c25.6,15.1,56.8,17.2,84.3,6.3c2.3-0.9,4-2.7,4-5.3c0-3.3,0-6.7,0-10c0-4.5-4.6-6.4-8.2-4.7c-51.6,23.1-110.6-17.3-107-73.8
					c1.5-24.6,15.6-47.3,36.7-59.9c22.6-13.6,48.3-13,72.2-3.2c2.1,0.9,5.2-0.6,6.2-2.5C163.6,175.9,205.8,146,256,146
					s92.4,29.8,114.9,73.7c1,1.9,4.1,3.4,6.2,2.5c23.9-9.9,49.6-10.4,72.2,3.2c21.1,12.6,35.2,35.4,36.7,59.9
					c3.5,56.5-55.5,96.9-107,73.8c-3.7-1.6-8.2,0.2-8.2,4.7c0,3.3,0,6.7,0,10c0,2.6,1.7,4.4,4,5.3c43.6,17.2,94.2,0.3,118.2-40.1
					c22.4-37.9,15.4-87.8-16.5-118.1C458.5,204,435,194.9,410.4,194.6c-7-0.1-7.1,10.9,0,10.9c51.3,0.7,92.3,47.1,83.8,98.5
					c-8.9,54.1-66.3,84.3-116.5,64.6c1.3,1.8,2.7,3.5,4,5.3c0-3.3,0-6.7,0-10c-2.7,1.6-5.5,3.2-8.2,4.7c44.4,19.9,97.4,1,116.7-44.5
					c17.6-41.3-0.5-90.9-40.6-111.1c-24.1-12.2-50.8-11.6-75.5-1.4c2.1,0.8,4.1,1.7,6.2,2.5C356.1,166.9,309.9,135,256,135
					s-100.1,31.9-124.3,79.1c2.1-0.8,4.1-1.7,6.2-2.5C95,194,44.7,209.3,23.8,252.3c-19.7,40.5-4.5,90.6,34.4,113.2
					c24.8,14.4,54.4,14.8,80.3,3.2c-2.7-1.6-5.5-3.2-8.2-4.7c0,3.3,0,6.7,0,10c1.3-1.8,2.7-3.5,4-5.3c-54.8,21.6-116.7-17-117.6-77
					c-0.8-59.3,58.7-99.9,113.9-81c2.2,0.8,5.1-0.5,6.2-2.5C161,165,206.1,136.9,256,136.9s94.9,28,119.1,71.3
					c1.1,2,3.9,3.3,6.2,2.5c9.5-3.2,19-5,29.1-5.2C417.5,205.4,417.5,194.5,410.4,194.6z"/>
			</g>
		</g>
	</g>
</g>
<rect id="XMLID_505_" x="191.4" y="333.6" fill="#F1F2F2" width="129.2" height="16.1"/>
<rect id="XMLID_511_" x="191.4" y="370" fill="#F1F2F2" width="129.2" height="16.1"/>
    </symbol>
    <symbol version="1.1" id="night_clear" xmlns="http://www.w3.org/2000/svg" xmlns:xlink="http://www.w3.org/1999/xlink" x="0px" y="0px" xml:space="preserve" viewBox="0 0 512 512">
    <g id="XMLID_217_">
	<path id="XMLID_240_" fill="#FFF200" d="M251.7,506C151,506,59.6,446.4,19,354.1L6,324.7l29.4,13c29.2,12.8,60.2,19.4,92.3,19.4
		C254.2,357,357,254.2,357,127.7c0-32.1-6.5-63.2-19.4-92.3L324.7,6l29.4,13C446.4,59.6,506,151,506,251.7
		C506,391.9,391.9,506,251.7,506z M56.4,371.9C97.7,439,171.4,481,251.7,481C378.2,481,481,378.2,481,251.7
		c0-80.3-42-154-109.2-195.3c6.7,23,10.1,46.9,10.1,71.3C382,267.9,267.9,382,127.7,382C103.3,382,79.4,378.6,56.4,371.9z"/>
</g>
    </symbol>
    <symbol version="1.1" id="night_partial_cloud" xmlns="http://www.w3.org/2000/svg" xmlns:xlink="http://www.w3.org/1999/xlink" x="0px" y="0px" xml:space="preserve" viewBox="0 0 512 512">
    <g id="XMLID_80_">
	<path id="XMLID_83_" fill="#FFF200" d="M41.3,220.3c3.3-2.6,6.7-5,10.3-7.2c-8.5-7.7-16-16.6-21.9-26.7c11.3,3.5,23,5.4,35,5.7
		c69,1.3,126.2-53.7,127.5-122.7c0.2-12-1.2-23.8-4.3-35.2c32.3,20.7,52.2,56.8,51.9,95.9c4.1-0.9,8.2-1.6,12.3-2.2
		c-0.5-48.2-28.6-92-72.6-112.3l-14.4-6.7l6.1,14.6c6,14.5,9,29.8,8.7,45.6c-1.2,62.2-52.8,111.9-115,110.7
		c-15.8-0.3-31-3.8-45.2-10.4l-14.4-6.7l6.1,14.6C18.4,193.9,28.7,208.5,41.3,220.3z"/>
</g>
<g id="XMLID_173_">
	<g id="XMLID_174_">
		<path id="XMLID_178_" fill="#F2F2F2" d="M256.1,415.8c-40.4,0-78.8-17.6-106-48.5c-14.6,9.3-31.2,14.2-48.4,14.2
			c-49.8,0-90.3-40.5-90.3-90.3s40.5-90.3,90.3-90.3c10.4,0,20.6,1.8,30.5,5.4c25.1-45.7,72.2-74,123.9-74s98.8,28.2,123.9,74
			c9.9-3.6,20.1-5.4,30.5-5.4c49.8,0,90.3,40.5,90.3,90.3s-40.5,90.3-90.3,90.3c-17.2,0-33.8-4.9-48.4-14.2
			C334.9,398.1,296.5,415.8,256.1,415.8z M151.8,355l2.7,3.2C180,389,217,406.7,256.1,406.7s76.1-17.6,101.6-48.4l2.7-3.2l3.4,2.4
			c13.8,9.7,30,14.9,46.6,14.9c44.8,0,81.2-36.4,81.2-81.2S455.2,210,410.5,210c-10.6,0-21,2.1-30.9,6.2l-3.9,1.6l-1.9-3.7
			c-22.9-44.8-68-72.6-117.7-72.6c-49.6,0-94.7,27.8-117.7,72.7l-1.9,3.7l-3.9-1.6c-9.9-4.1-20.3-6.2-30.9-6.2
			c-44.8,0-81.2,36.4-81.2,81.2s36.4,81.2,81.2,81.2c16.7,0,32.8-5.1,46.6-14.9L151.8,355z"/>
		<g id="XMLID_175_">
			<path id="XMLID_177_" fill="#F2F2F2" d="M256.1,410.3c-39.5-0.4-75.8-17.6-102.1-46.9c-1.6-1.8-4.7-2.1-6.6-0.9
				c-26.8,16.5-60.3,18.1-87.7,2.3c-23.8-13.7-40-38.6-42.4-66c-5.4-61.7,55.8-107.1,113.6-87.3c2.2,0.8,5.1-0.5,6.2-2.5
				c24.2-43.2,69.3-71.3,119.1-71.3c49.9,0,94.9,28,119.1,71.3c1.1,2,3.9,3.3,6.2,2.5c57.7-19.7,119,25.5,113.6,87.3
				c-2.4,27.4-18.7,52.3-42.4,66c-27.5,15.8-61,14.2-87.7-2.3c-2-1.2-5.1-0.9-6.6,0.9C331.9,392.7,295.6,409.9,256.1,410.3
				c-7,0.1-7.1,11,0,10.9c42.3-0.4,81.7-18.7,109.8-50.1c-2.2,0.3-4.4,0.6-6.6,0.9c45.5,28,106.3,14.2,133.7-32.2
				c25.5-43.1,12.4-99.7-28.8-127.9c-25.1-17.2-57.1-20.8-85.7-11c2.1,0.8,4.1,1.7,6.2,2.5c-26-46.5-74.9-76.7-128.6-76.7
				c-53.6,0-102.5,30.2-128.6,76.7c2.1-0.8,4.1-1.7,6.2-2.5c-49.6-17-104.4,8.8-122.2,58.2C-5.6,306.5,18.8,360.2,65,379.6
				c28.8,12.1,61.5,8.7,87.9-7.6c-2.2-0.3-4.4-0.6-6.6-0.9c28.2,31.4,67.6,49.7,109.8,50.1C263.1,421.3,263.2,410.4,256.1,410.3z"/>
			<path id="XMLID_176_" fill="#F2F2F2" d="M147.9,358.9c27,32.6,65.3,53.2,108.2,53.2c42.8,0,81.2-20.7,108.2-53.2
				c-2.2,0.3-4.4,0.6-6.6,0.9c21.1,14.9,45.9,21.6,71.5,16c22.8-4.9,42.9-19.5,55.1-39.2c25.6-41.3,10.8-97.3-31.5-121
				c-24.7-13.8-52.8-13.7-78.6-3.1c2.1,0.8,4.1,1.7,6.2,2.5c-24.2-47.2-70.4-79.1-124.3-79.1S156,167.8,131.8,215
				c2.1-0.8,4.1-1.7,6.2-2.5c-45.7-18.9-98.4,0.2-117,47.3c-17.9,45.3,7,97.5,52.8,113.4c27.9,9.7,57.1,3.3,80.8-13.4
				c5.7-4,0.2-13.5-5.5-9.5c-23.7,16.7-53.1,22.2-79.9,9.2c-24-11.6-40.8-35.5-42.9-62.1c-2.1-26.5,9.9-52.7,31.7-68
				c23.3-16.5,51.3-17.1,77.1-6.4c2.1,0.9,5.2-0.6,6.2-2.5c22.5-43.8,64.6-73.7,114.9-73.7c50.2,0,92.4,29.8,114.8,73.7
				c1,1.9,4.1,3.4,6.2,2.5c25.5-10.5,53-10.2,76.2,5.7c22.3,15.3,34.7,41.8,32.6,68.7c-2.1,26.2-18.4,49.8-41.8,61.5
				c-27.1,13.6-56.9,8.3-81-8.7c-1.8-1.3-5.2-0.9-6.6,0.9c-25.2,30.4-60.3,50-100.4,50s-75.2-19.6-100.4-50
				C151.2,345.7,143.4,353.5,147.9,358.9z"/>
		</g>
	</g>
</g>
    </symbol>
    <symbol version="1.1" id="night_rain_thunder" xmlns="http://www.w3.org/2000/svg" xmlns:xlink="http://www.w3.org/1999/xlink" x="0px" y="0px" xml:space="preserve" viewBox="0 0 512 512">
    <g id="XMLID_80_">
	<path id="XMLID_83_" fill="#FFF200" d="M41.3,220.3c3.3-2.6,6.7-5,10.3-7.2c-8.5-7.7-16-16.6-21.9-26.7c11.3,3.5,23,5.4,35,5.7
		c69,1.3,126.2-53.7,127.5-122.7c0.2-12-1.2-23.8-4.3-35.2c32.3,20.7,52.2,56.8,51.9,95.9c4.1-0.9,8.2-1.6,12.3-2.2
		c-0.5-48.2-28.6-92-72.6-112.3l-14.4-6.7l6.1,14.6c6,14.5,9,29.8,8.7,45.6c-1.2,62.2-52.8,111.9-115,110.7
		c-15.8-0.3-31-3.8-45.2-10.4l-14.4-6.7l6.1,14.6C18.4,193.9,28.7,208.5,41.3,220.3z"/>
</g>
<g id="XMLID_18_">
	<g id="XMLID_46_">
		<g id="XMLID_49_">
			<path id="XMLID_52_" fill="#F2F2F2" d="M410.4,200.1c-10.4,0-20.7,1.8-30.5,5.4c-25.1-45.7-72.1-74-123.9-74
				c-51.7,0-98.8,28.2-123.9,74c-9.9-3.6-20.1-5.4-30.5-5.4c-49.8,0-90.3,40.5-90.3,90.3s40.5,90.3,90.3,90.3
				c11.8,0,23.4-2.3,34.2-6.8v-10c-10.7,5-22.3,7.7-34.2,7.7c-44.8,0-81.2-36.4-81.2-81.2s36.4-81.2,81.2-81.2
				c10.6,0,21,2.1,30.9,6.2l3.9,1.6l1.9-3.7c23-44.8,68.1-72.7,117.7-72.7s94.7,27.8,117.7,72.7l1.9,3.7l3.9-1.6
				c9.9-4.1,20.3-6.2,30.9-6.2c44.8,0,81.2,36.4,81.2,81.2s-36.4,81.2-81.2,81.2c-11.9,0-23.5-2.6-34.2-7.7v10
				c10.8,4.5,22.4,6.8,34.2,6.8c49.8,0,90.3-40.5,90.3-90.3S460.2,200.1,410.4,200.1z"/>
			<g id="XMLID_50_">
				<path id="XMLID_51_" fill="#F2F2F2" d="M410.4,194.6c-11,0.2-21.6,2-32,5.6c2.1,0.8,4.1,1.7,6.2,2.5c-26-46.5-75-76.7-128.6-76.7
					s-102.6,30.2-128.6,76.7c2.1-0.8,4.1-1.7,6.2-2.5C85.9,183.9,32.8,207,13.2,253.7C-5,297.2,12.4,348.9,53,372.9
					c25.6,15.1,56.8,17.2,84.3,6.3c2.3-0.9,4-2.7,4-5.3c0-3.3,0-6.7,0-10c0-4.5-4.6-6.4-8.2-4.7c-51.6,23.1-110.6-17.3-107-73.8
					c1.5-24.6,15.6-47.3,36.7-59.9c22.6-13.6,48.3-13,72.2-3.2c2.1,0.9,5.2-0.6,6.2-2.5C163.6,175.9,205.8,146,256,146
					s92.4,29.8,114.9,73.7c1,1.9,4.1,3.4,6.2,2.5c23.9-9.9,49.6-10.4,72.2,3.2c21.1,12.6,35.2,35.4,36.7,59.9
					c3.5,56.5-55.5,96.9-107,73.8c-3.7-1.6-8.2,0.2-8.2,4.7c0,3.3,0,6.7,0,10c0,2.6,1.7,4.4,4,5.3c43.6,17.2,94.2,0.3,118.2-40.1
					c22.4-37.9,15.4-87.8-16.5-118.1C458.5,204,435,194.9,410.4,194.6c-7-0.1-7.1,10.9,0,10.9c51.3,0.7,92.3,47.1,83.8,98.5
					c-8.9,54.1-66.3,84.3-116.5,64.6c1.3,1.8,2.7,3.5,4,5.3c0-3.3,0-6.7,0-10c-2.7,1.6-5.5,3.2-8.2,4.7c44.4,19.9,97.4,1,116.7-44.5
					c17.6-41.3-0.5-90.9-40.6-111.1c-24.1-12.2-50.8-11.6-75.5-1.4c2.1,0.8,4.1,1.7,6.2,2.5C356.1,166.9,309.9,135,256,135
					s-100.1,31.9-124.3,79.1c2.1-0.8,4.1-1.7,6.2-2.5C95,194,44.7,209.3,23.8,252.3c-19.7,40.5-4.5,90.6,34.4,113.2
					c24.8,14.4,54.4,14.8,80.3,3.2c-2.7-1.6-5.5-3.2-8.2-4.7c0,3.3,0,6.7,0,10c1.3-1.8,2.7-3.5,4-5.3c-54.8,21.6-116.7-17-117.6-77
					c-0.8-59.3,58.7-99.9,113.9-81c2.2,0.8,5.1-0.5,6.2-2.5C161,165,206.1,136.9,256,136.9s94.9,28,119.1,71.3
					c1.1,2,3.9,3.3,6.2,2.5c9.5-3.2,19-5,29.1-5.2C417.5,205.4,417.5,194.5,410.4,194.6z"/>
			</g>
		</g>
	</g>
</g>
<path id="XMLID_114_" fill="#2BACE2" d="M181.3,365.4c3.5,9,13.7,13.4,22.7,9.8c9-3.5,13.4-13.7,9.8-22.7c-3.5-9-29.1-26.1-29.1-26.1
	S177.8,356.4,181.3,365.4z"/>
<g id="XMLID_144_">
	<path id="XMLID_182_" fill="#FCEE23" d="M278.1,387l-62.9-77.8l28.3-8.2l-9.7-59.9l62.9,77.8l-28.3,8.2L278.1,387z M226.9,312.8
		l40.5,50.1l-6.6-40.7l24.3-7l-40.5-50.1l6.6,40.7L226.9,312.8z"/>
</g>
<path id="XMLID_1_" fill="#2BACE2" d="M299.3,365.4c3.5,9,13.7,13.4,22.7,9.8c9-3.5,13.4-13.7,9.8-22.7c-3.5-9-29.1-26.1-29.1-26.1
	S295.8,356.4,299.3,365.4z"/>
    </symbol>
    <symbol version="1.1" id="night_rain" xmlns="http://www.w3.org/2000/svg" xmlns:xlink="http://www.w3.org/1999/xlink" x="0px" y="0px" xml:space="preserve" viewBox="0 0 512 512">
    <g id="XMLID_80_">
	<path id="XMLID_83_" fill="#FFF200" d="M41.3,220.3c3.3-2.6,6.7-5,10.3-7.2c-8.5-7.7-16-16.6-21.9-26.7c11.3,3.5,23,5.4,35,5.7
		c69,1.3,126.2-53.7,127.5-122.7c0.2-12-1.2-23.8-4.3-35.2c32.3,20.7,52.2,56.8,51.9,95.9c4.1-0.9,8.2-1.6,12.3-2.2
		c-0.5-48.2-28.6-92-72.6-112.3l-14.4-6.7l6.1,14.6c6,14.5,9,29.8,8.7,45.6c-1.2,62.2-52.8,111.9-115,110.7
		c-15.8-0.3-31-3.8-45.2-10.4l-14.4-6.7l6.1,14.6C18.4,193.9,28.7,208.5,41.3,220.3z"/>
</g>
<g id="XMLID_18_">
	<g id="XMLID_46_">
		<g id="XMLID_49_">
			<path id="XMLID_52_" fill="#F2F2F2" d="M410.4,200.1c-10.4,0-20.7,1.8-30.5,5.4c-25.1-45.7-72.1-74-123.9-74
				c-51.7,0-98.8,28.2-123.9,74c-9.9-3.6-20.1-5.4-30.5-5.4c-49.8,0-90.3,40.5-90.3,90.3s40.5,90.3,90.3,90.3
				c11.8,0,23.4-2.3,34.2-6.8v-10c-10.7,5-22.3,7.7-34.2,7.7c-44.8,0-81.2-36.4-81.2-81.2s36.4-81.2,81.2-81.2
				c10.6,0,21,2.1,30.9,6.2l3.9,1.6l1.9-3.7c23-44.8,68.1-72.7,117.7-72.7s94.7,27.8,117.7,72.7l1.9,3.7l3.9-1.6
				c9.9-4.1,20.3-6.2,30.9-6.2c44.8,0,81.2,36.4,81.2,81.2s-36.4,81.2-81.2,81.2c-11.9,0-23.5-2.6-34.2-7.7v10
				c10.8,4.5,22.4,6.8,34.2,6.8c49.8,0,90.3-40.5,90.3-90.3S460.2,200.1,410.4,200.1z"/>
			<g id="XMLID_50_">
				<path id="XMLID_51_" fill="#F2F2F2" d="M410.4,194.6c-11,0.2-21.6,2-32,5.6c2.1,0.8,4.1,1.7,6.2,2.5c-26-46.5-75-76.7-128.6-76.7
					s-102.6,30.2-128.6,76.7c2.1-0.8,4.1-1.7,6.2-2.5C85.9,183.9,32.8,207,13.2,253.7C-5,297.2,12.4,348.9,53,372.9
					c25.6,15.1,56.8,17.2,84.3,6.3c2.3-0.9,4-2.7,4-5.3c0-3.3,0-6.7,0-10c0-4.5-4.6-6.4-8.2-4.7c-51.6,23.1-110.6-17.3-107-73.8
					c1.5-24.6,15.6-47.3,36.7-59.9c22.6-13.6,48.3-13,72.2-3.2c2.1,0.9,5.2-0.6,6.2-2.5C163.6,175.9,205.8,146,256,146
					s92.4,29.8,114.9,73.7c1,1.9,4.1,3.4,6.2,2.5c23.9-9.9,49.6-10.4,72.2,3.2c21.1,12.6,35.2,35.4,36.7,59.9
					c3.5,56.5-55.5,96.9-107,73.8c-3.7-1.6-8.2,0.2-8.2,4.7c0,3.3,0,6.7,0,10c0,2.6,1.7,4.4,4,5.3c43.6,17.2,94.2,0.3,118.2-40.1
					c22.4-37.9,15.4-87.8-16.5-118.1C458.5,204,435,194.9,410.4,194.6c-7-0.1-7.1,10.9,0,10.9c51.3,0.7,92.3,47.1,83.8,98.5
					c-8.9,54.1-66.3,84.3-116.5,64.6c1.3,1.8,2.7,3.5,4,5.3c0-3.3,0-6.7,0-10c-2.7,1.6-5.5,3.2-8.2,4.7c44.4,19.9,97.4,1,116.7-44.5
					c17.6-41.3-0.5-90.9-40.6-111.1c-24.1-12.2-50.8-11.6-75.5-1.4c2.1,0.8,4.1,1.7,6.2,2.5C356.1,166.9,309.9,135,256,135
					s-100.1,31.9-124.3,79.1c2.1-0.8,4.1-1.7,6.2-2.5C95,194,44.7,209.3,23.8,252.3c-19.7,40.5-4.5,90.6,34.4,113.2
					c24.8,14.4,54.4,14.8,80.3,3.2c-2.7-1.6-5.5-3.2-8.2-4.7c0,3.3,0,6.7,0,10c1.3-1.8,2.7-3.5,4-5.3c-54.8,21.6-116.7-17-117.6-77
					c-0.8-59.3,58.7-99.9,113.9-81c2.2,0.8,5.1-0.5,6.2-2.5C161,165,206.1,136.9,256,136.9s94.9,28,119.1,71.3
					c1.1,2,3.9,3.3,6.2,2.5c9.5-3.2,19-5,29.1-5.2C417.5,205.4,417.5,194.5,410.4,194.6z"/>
			</g>
		</g>
	</g>
</g>
<path id="XMLID_114_" fill="#2BACE2" d="M287,369.2c5.2,13.1,20,19.6,33.2,14.4c13.1-5.2,19.6-20,14.4-33.2
	c-5.2-13.1-42.6-38.2-42.6-38.2S281.8,356.1,287,369.2z"/>
<path id="XMLID_1_" fill="#2BACE2" d="M180,369.2c5.2,13.1,20,19.6,33.2,14.4c13.1-5.2,19.6-20,14.4-33.2
	c-5.2-13.1-42.6-38.2-42.6-38.2S174.8,356.1,180,369.2z"/>
    </symbol>
    <symbol version="1.1" id="night_sleet" xmlns="http://www.w3.org/2000/svg" xmlns:xlink="http://www.w3.org/1999/xlink" x="0px" y="0px" xml:space="preserve" viewBox="0 0 512 512">
    <g id="XMLID_80_">
	<path id="XMLID_83_" fill="#FFF200" d="M41.3,220.3c3.3-2.6,6.7-5,10.3-7.2c-8.5-7.7-16-16.6-21.9-26.7c11.3,3.5,23,5.4,35,5.7
		c69,1.3,126.2-53.7,127.5-122.7c0.2-12-1.2-23.8-4.3-35.2c32.3,20.7,52.2,56.8,51.9,95.9c4.1-0.9,8.2-1.6,12.3-2.2
		c-0.5-48.2-28.6-92-72.6-112.3l-14.4-6.7l6.1,14.6c6,14.5,9,29.8,8.7,45.6c-1.2,62.2-52.8,111.9-115,110.7
		c-15.8-0.3-31-3.8-45.2-10.4l-14.4-6.7l6.1,14.6C18.4,193.9,28.7,208.5,41.3,220.3z"/>
</g>
<g id="XMLID_18_">
	<g id="XMLID_46_">
		<g id="XMLID_49_">
			<path id="XMLID_52_" fill="#F2F2F2" d="M410.4,200.1c-10.4,0-20.7,1.8-30.5,5.4c-25.1-45.7-72.1-74-123.9-74
				c-51.7,0-98.8,28.2-123.9,74c-9.9-3.6-20.1-5.4-30.5-5.4c-49.8,0-90.3,40.5-90.3,90.3s40.5,90.3,90.3,90.3
				c11.8,0,23.4-2.3,34.2-6.8v-10c-10.7,5-22.3,7.7-34.2,7.7c-44.8,0-81.2-36.4-81.2-81.2s36.4-81.2,81.2-81.2
				c10.6,0,21,2.1,30.9,6.2l3.9,1.6l1.9-3.7c23-44.8,68.1-72.7,117.7-72.7s94.7,27.8,117.7,72.7l1.9,3.7l3.9-1.6
				c9.9-4.1,20.3-6.2,30.9-6.2c44.8,0,81.2,36.4,81.2,81.2s-36.4,81.2-81.2,81.2c-11.9,0-23.5-2.6-34.2-7.7v10
				c10.8,4.5,22.4,6.8,34.2,6.8c49.8,0,90.3-40.5,90.3-90.3S460.2,200.1,410.4,200.1z"/>
			<g id="XMLID_50_">
				<path id="XMLID_51_" fill="#F2F2F2" d="M410.4,194.6c-11,0.2-21.6,2-32,5.6c2.1,0.8,4.1,1.7,6.2,2.5c-26-46.5-75-76.7-128.6-76.7
					s-102.6,30.2-128.6,76.7c2.1-0.8,4.1-1.7,6.2-2.5C85.9,183.9,32.8,207,13.2,253.7C-5,297.2,12.4,348.9,53,372.9
					c25.6,15.1,56.8,17.2,84.3,6.3c2.3-0.9,4-2.7,4-5.3c0-3.3,0-6.7,0-10c0-4.5-4.6-6.4-8.2-4.7c-51.6,23.1-110.6-17.3-107-73.8
					c1.5-24.6,15.6-47.3,36.7-59.9c22.6-13.6,48.3-13,72.2-3.2c2.1,0.9,5.2-0.6,6.2-2.5C163.6,175.9,205.8,146,256,146
					s92.4,29.8,114.9,73.7c1,1.9,4.1,3.4,6.2,2.5c23.9-9.9,49.6-10.4,72.2,3.2c21.1,12.6,35.2,35.4,36.7,59.9
					c3.5,56.5-55.5,96.9-107,73.8c-3.7-1.6-8.2,0.2-8.2,4.7c0,3.3,0,6.7,0,10c0,2.6,1.7,4.4,4,5.3c43.6,17.2,94.2,0.3,118.2-40.1
					c22.4-37.9,15.4-87.8-16.5-118.1C458.5,204,435,194.9,410.4,194.6c-7-0.1-7.1,10.9,0,10.9c51.3,0.7,92.3,47.1,83.8,98.5
					c-8.9,54.1-66.3,84.3-116.5,64.6c1.3,1.8,2.7,3.5,4,5.3c0-3.3,0-6.7,0-10c-2.7,1.6-5.5,3.2-8.2,4.7c44.4,19.9,97.4,1,116.7-44.5
					c17.6-41.3-0.5-90.9-40.6-111.1c-24.1-12.2-50.8-11.6-75.5-1.4c2.1,0.8,4.1,1.7,6.2,2.5C356.1,166.9,309.9,135,256,135
					s-100.1,31.9-124.3,79.1c2.1-0.8,4.1-1.7,6.2-2.5C95,194,44.7,209.3,23.8,252.3c-19.7,40.5-4.5,90.6,34.4,113.2
					c24.8,14.4,54.4,14.8,80.3,3.2c-2.7-1.6-5.5-3.2-8.2-4.7c0,3.3,0,6.7,0,10c1.3-1.8,2.7-3.5,4-5.3c-54.8,21.6-116.7-17-117.6-77
					c-0.8-59.3,58.7-99.9,113.9-81c2.2,0.8,5.1-0.5,6.2-2.5C161,165,206.1,136.9,256,136.9s94.9,28,119.1,71.3
					c1.1,2,3.9,3.3,6.2,2.5c9.5-3.2,19-5,29.1-5.2C417.5,205.4,417.5,194.5,410.4,194.6z"/>
			</g>
		</g>
	</g>
</g>
<path id="XMLID_114_" fill="#2BACE2" d="M287,369.2c5.2,13.1,20,19.6,33.2,14.4c13.1-5.2,19.6-20,14.4-33.2
	c-5.2-13.1-42.6-38.2-42.6-38.2S281.8,356.1,287,369.2z"/>
<g id="XMLID_135_">
	<path id="XMLID_139_" fill="#F2F2F2" d="M205.8,385.9h-5.1c-1.1,0-1.9-0.9-1.9-1.9v-65.1c0-1.1,0.9-1.9,1.9-1.9h5.1
		c1.1,0,1.9,0.9,1.9,1.9V384C207.7,385,206.9,385.9,205.8,385.9z"/>
	<path id="XMLID_138_" fill="#F2F2F2" d="M168.8,353.9v-5.1c0-1.1,0.9-1.9,1.9-1.9h65.1c1.1,0,1.9,0.9,1.9,1.9v5.1
		c0,1.1-0.9,1.9-1.9,1.9h-65.1C169.7,355.9,168.8,355,168.8,353.9z"/>
	<path id="XMLID_137_" fill="#F2F2F2" d="M180.7,377.6l-3.6-3.6c-0.7-0.7-0.7-2,0-2.7l46-46c0.7-0.7,2-0.7,2.7,0l3.6,3.6
		c0.7,0.7,0.7,2,0,2.7l-46,46C182.7,378.3,181.4,378.3,180.7,377.6z"/>
	<path id="XMLID_136_" fill="#F2F2F2" d="M177.1,328.8l3.6-3.6c0.7-0.7,2-0.7,2.7,0l46,46c0.7,0.7,0.7,2,0,2.7l-3.6,3.6
		c-0.7,0.7-2,0.7-2.7,0l-46-46C176.4,330.8,176.4,329.6,177.1,328.8z"/>
</g>
    </symbol>
    <symbol version="1.1" id="night_snow_thunder" xmlns="http://www.w3.org/2000/svg" xmlns:xlink="http://www.w3.org/1999/xlink" x="0px" y="0px" xml:space="preserve" viewBox="0 0 512 512">
    <g id="XMLID_80_">
	<path id="XMLID_83_" fill="#FFF200" d="M41.3,220.3c3.3-2.6,6.7-5,10.3-7.2c-8.5-7.7-16-16.6-21.9-26.7c11.3,3.5,23,5.4,35,5.7
		c69,1.3,126.2-53.7,127.5-122.7c0.2-12-1.2-23.8-4.3-35.2c32.3,20.7,52.2,56.8,51.9,95.9c4.1-0.9,8.2-1.6,12.3-2.2
		c-0.5-48.2-28.6-92-72.6-112.3l-14.4-6.7l6.1,14.6c6,14.5,9,29.8,8.7,45.6c-1.2,62.2-52.8,111.9-115,110.7
		c-15.8-0.3-31-3.8-45.2-10.4l-14.4-6.7l6.1,14.6C18.4,193.9,28.7,208.5,41.3,220.3z"/>
</g>
<g id="XMLID_18_">
	<g id="XMLID_46_">
		<g id="XMLID_49_">
			<path id="XMLID_52_" fill="#F2F2F2" d="M410.4,200.1c-10.4,0-20.7,1.8-30.5,5.4c-25.1-45.7-72.1-74-123.9-74
				c-51.7,0-98.8,28.2-123.9,74c-9.9-3.6-20.1-5.4-30.5-5.4c-49.8,0-90.3,40.5-90.3,90.3s40.5,90.3,90.3,90.3
				c11.8,0,23.4-2.3,34.2-6.8v-10c-10.7,5-22.3,7.7-34.2,7.7c-44.8,0-81.2-36.4-81.2-81.2s36.4-81.2,81.2-81.2
				c10.6,0,21,2.1,30.9,6.2l3.9,1.6l1.9-3.7c23-44.8,68.1-72.7,117.7-72.7s94.7,27.8,117.7,72.7l1.9,3.7l3.9-1.6
				c9.9-4.1,20.3-6.2,30.9-6.2c44.8,0,81.2,36.4,81.2,81.2s-36.4,81.2-81.2,81.2c-11.9,0-23.5-2.6-34.2-7.7v10
				c10.8,4.5,22.4,6.8,34.2,6.8c49.8,0,90.3-40.5,90.3-90.3S460.2,200.1,410.4,200.1z"/>
			<g id="XMLID_50_">
				<path id="XMLID_51_" fill="#F2F2F2" d="M410.4,194.6c-11,0.2-21.6,2-32,5.6c2.1,0.8,4.1,1.7,6.2,2.5c-26-46.5-75-76.7-128.6-76.7
					s-102.6,30.2-128.6,76.7c2.1-0.8,4.1-1.7,6.2-2.5C85.9,183.9,32.8,207,13.2,253.7C-5,297.2,12.4,348.9,53,372.9
					c25.6,15.1,56.8,17.2,84.3,6.3c2.3-0.9,4-2.7,4-5.3c0-3.3,0-6.7,0-10c0-4.5-4.6-6.4-8.2-4.7c-51.6,23.1-110.6-17.3-107-73.8
					c1.5-24.6,15.6-47.3,36.7-59.9c22.6-13.6,48.3-13,72.2-3.2c2.1,0.9,5.2-0.6,6.2-2.5C163.6,175.9,205.8,146,256,146
					s92.4,29.8,114.9,73.7c1,1.9,4.1,3.4,6.2,2.5c23.9-9.9,49.6-10.4,72.2,3.2c21.1,12.6,35.2,35.4,36.7,59.9
					c3.5,56.5-55.5,96.9-107,73.8c-3.7-1.6-8.2,0.2-8.2,4.7c0,3.3,0,6.7,0,10c0,2.6,1.7,4.4,4,5.3c43.6,17.2,94.2,0.3,118.2-40.1
					c22.4-37.9,15.4-87.8-16.5-118.1C458.5,204,435,194.9,410.4,194.6c-7-0.1-7.1,10.9,0,10.9c51.3,0.7,92.3,47.1,83.8,98.5
					c-8.9,54.1-66.3,84.3-116.5,64.6c1.3,1.8,2.7,3.5,4,5.3c0-3.3,0-6.7,0-10c-2.7,1.6-5.5,3.2-8.2,4.7c44.4,19.9,97.4,1,116.7-44.5
					c17.6-41.3-0.5-90.9-40.6-111.1c-24.1-12.2-50.8-11.6-75.5-1.4c2.1,0.8,4.1,1.7,6.2,2.5C356.1,166.9,309.9,135,256,135
					s-100.1,31.9-124.3,79.1c2.1-0.8,4.1-1.7,6.2-2.5C95,194,44.7,209.3,23.8,252.3c-19.7,40.5-4.5,90.6,34.4,113.2
					c24.8,14.4,54.4,14.8,80.3,3.2c-2.7-1.6-5.5-3.2-8.2-4.7c0,3.3,0,6.7,0,10c1.3-1.8,2.7-3.5,4-5.3c-54.8,21.6-116.7-17-117.6-77
					c-0.8-59.3,58.7-99.9,113.9-81c2.2,0.8,5.1-0.5,6.2-2.5C161,165,206.1,136.9,256,136.9s94.9,28,119.1,71.3
					c1.1,2,3.9,3.3,6.2,2.5c9.5-3.2,19-5,29.1-5.2C417.5,205.4,417.5,194.5,410.4,194.6z"/>
			</g>
		</g>
	</g>
</g>
<g id="XMLID_135_">
	<path id="XMLID_139_" fill="#F2F2F2" d="M199,376.4h-2.6c-1.1,0-1.9-0.9-1.9-1.9v-46.2c0-1.1,0.9-1.9,1.9-1.9h2.6
		c1.1,0,1.9,0.9,1.9,1.9v46.2C200.9,375.6,200.1,376.4,199,376.4z"/>
	<path id="XMLID_138_" fill="#F2F2F2" d="M172.7,352.7v-2.6c0-1.1,0.9-1.9,1.9-1.9h46.2c1.1,0,1.9,0.9,1.9,1.9v2.6
		c0,1.1-0.9,1.9-1.9,1.9h-46.2C173.6,354.6,172.7,353.8,172.7,352.7z"/>
	<path id="XMLID_137_" fill="#F2F2F2" d="M180.9,370l-1.9-1.9c-0.7-0.7-0.7-2,0-2.7l32.6-32.6c0.7-0.7,2-0.7,2.7,0l1.9,1.9
		c0.7,0.7,0.7,2,0,2.7L183.7,370C182.9,370.8,181.7,370.8,180.9,370z"/>
	<path id="XMLID_136_" fill="#F2F2F2" d="M179.1,334.7l1.9-1.9c0.7-0.7,2-0.7,2.7,0l32.6,32.6c0.7,0.7,0.7,2,0,2.7l-1.9,1.9
		c-0.7,0.7-2,0.7-2.7,0l-32.6-32.6C178.3,336.6,178.3,335.4,179.1,334.7z"/>
</g>
<g id="XMLID_1_">
	<path id="XMLID_5_" fill="#F2F2F2" d="M315.2,376.4h-2.6c-1.1,0-1.9-0.9-1.9-1.9v-46.2c0-1.1,0.9-1.9,1.9-1.9h2.6
		c1.1,0,1.9,0.9,1.9,1.9v46.2C317.1,375.6,316.2,376.4,315.2,376.4z"/>
	<path id="XMLID_4_" fill="#F2F2F2" d="M288.9,352.7v-2.6c0-1.1,0.9-1.9,1.9-1.9H337c1.1,0,1.9,0.9,1.9,1.9v2.6c0,1.1-0.9,1.9-1.9,1.9
		h-46.2C289.7,354.6,288.9,353.8,288.9,352.7z"/>
	<path id="XMLID_3_" fill="#F2F2F2" d="M297.1,370l-1.9-1.9c-0.7-0.7-0.7-2,0-2.7l32.6-32.6c0.7-0.7,2-0.7,2.7,0l1.9,1.9
		c0.7,0.7,0.7,2,0,2.7L299.8,370C299.1,370.8,297.9,370.8,297.1,370z"/>
	<path id="XMLID_2_" fill="#F2F2F2" d="M295.3,334.7l1.9-1.9c0.7-0.7,2-0.7,2.7,0l32.6,32.6c0.7,0.7,0.7,2,0,2.7l-1.9,1.9
		c-0.7,0.7-2,0.7-2.7,0l-32.6-32.6C294.5,336.6,294.5,335.4,295.3,334.7z"/>
</g>
<g id="XMLID_144_">
	<path id="XMLID_182_" fill="#FCEE23" d="M278.1,387l-62.9-77.8l28.3-8.2l-9.7-59.9l62.9,77.8l-28.3,8.2L278.1,387z M226.9,312.8
		l40.5,50.1l-6.6-40.7l24.3-7l-40.5-50.1l6.6,40.7L226.9,312.8z"/>
</g>
    </symbol>
    <symbol version="1.1" id="night_snow" xmlns="http://www.w3.org/2000/svg" xmlns:xlink="http://www.w3.org/1999/xlink" x="0px" y="0px" xml:space="preserve" viewBox="0 0 512 512">
    <g id="XMLID_80_">
	<path id="XMLID_83_" fill="#FFF200" d="M41.3,220.3c3.3-2.6,6.7-5,10.3-7.2c-8.5-7.7-16-16.6-21.9-26.7c11.3,3.5,23,5.4,35,5.7
		c69,1.3,126.2-53.7,127.5-122.7c0.2-12-1.2-23.8-4.3-35.2c32.3,20.7,52.2,56.8,51.9,95.9c4.1-0.9,8.2-1.6,12.3-2.2
		c-0.5-48.2-28.6-92-72.6-112.3l-14.4-6.7l6.1,14.6c6,14.5,9,29.8,8.7,45.6c-1.2,62.2-52.8,111.9-115,110.7
		c-15.8-0.3-31-3.8-45.2-10.4l-14.4-6.7l6.1,14.6C18.4,193.9,28.7,208.5,41.3,220.3z"/>
</g>
<g id="XMLID_18_">
	<g id="XMLID_46_">
		<g id="XMLID_49_">
			<path id="XMLID_52_" fill="#F2F2F2" d="M410.4,200.1c-10.4,0-20.7,1.8-30.5,5.4c-25.1-45.7-72.1-74-123.9-74
				c-51.7,0-98.8,28.2-123.9,74c-9.9-3.6-20.1-5.4-30.5-5.4c-49.8,0-90.3,40.5-90.3,90.3s40.5,90.3,90.3,90.3
				c11.8,0,23.4-2.3,34.2-6.8v-10c-10.7,5-22.3,7.7-34.2,7.7c-44.8,0-81.2-36.4-81.2-81.2s36.4-81.2,81.2-81.2
				c10.6,0,21,2.1,30.9,6.2l3.9,1.6l1.9-3.7c23-44.8,68.1-72.7,117.7-72.7s94.7,27.8,117.7,72.7l1.9,3.7l3.9-1.6
				c9.9-4.1,20.3-6.2,30.9-6.2c44.8,0,81.2,36.4,81.2,81.2s-36.4,81.2-81.2,81.2c-11.9,0-23.5-2.6-34.2-7.7v10
				c10.8,4.5,22.4,6.8,34.2,6.8c49.8,0,90.3-40.5,90.3-90.3S460.2,200.1,410.4,200.1z"/>
			<g id="XMLID_50_">
				<path id="XMLID_51_" fill="#F2F2F2" d="M410.4,194.6c-11,0.2-21.6,2-32,5.6c2.1,0.8,4.1,1.7,6.2,2.5c-26-46.5-75-76.7-128.6-76.7
					s-102.6,30.2-128.6,76.7c2.1-0.8,4.1-1.7,6.2-2.5C85.9,183.9,32.8,207,13.2,253.7C-5,297.2,12.4,348.9,53,372.9
					c25.6,15.1,56.8,17.2,84.3,6.3c2.3-0.9,4-2.7,4-5.3c0-3.3,0-6.7,0-10c0-4.5-4.6-6.4-8.2-4.7c-51.6,23.1-110.6-17.3-107-73.8
					c1.5-24.6,15.6-47.3,36.7-59.9c22.6-13.6,48.3-13,72.2-3.2c2.1,0.9,5.2-0.6,6.2-2.5C163.6,175.9,205.8,146,256,146
					s92.4,29.8,114.9,73.7c1,1.9,4.1,3.4,6.2,2.5c23.9-9.9,49.6-10.4,72.2,3.2c21.1,12.6,35.2,35.4,36.7,59.9
					c3.5,56.5-55.5,96.9-107,73.8c-3.7-1.6-8.2,0.2-8.2,4.7c0,3.3,0,6.7,0,10c0,2.6,1.7,4.4,4,5.3c43.6,17.2,94.2,0.3,118.2-40.1
					c22.4-37.9,15.4-87.8-16.5-118.1C458.5,204,435,194.9,410.4,194.6c-7-0.1-7.1,10.9,0,10.9c51.3,0.7,92.3,47.1,83.8,98.5
					c-8.9,54.1-66.3,84.3-116.5,64.6c1.3,1.8,2.7,3.5,4,5.3c0-3.3,0-6.7,0-10c-2.7,1.6-5.5,3.2-8.2,4.7c44.4,19.9,97.4,1,116.7-44.5
					c17.6-41.3-0.5-90.9-40.6-111.1c-24.1-12.2-50.8-11.6-75.5-1.4c2.1,0.8,4.1,1.7,6.2,2.5C356.1,166.9,309.9,135,256,135
					s-100.1,31.9-124.3,79.1c2.1-0.8,4.1-1.7,6.2-2.5C95,194,44.7,209.3,23.8,252.3c-19.7,40.5-4.5,90.6,34.4,113.2
					c24.8,14.4,54.4,14.8,80.3,3.2c-2.7-1.6-5.5-3.2-8.2-4.7c0,3.3,0,6.7,0,10c1.3-1.8,2.7-3.5,4-5.3c-54.8,21.6-116.7-17-117.6-77
					c-0.8-59.3,58.7-99.9,113.9-81c2.2,0.8,5.1-0.5,6.2-2.5C161,165,206.1,136.9,256,136.9s94.9,28,119.1,71.3
					c1.1,2,3.9,3.3,6.2,2.5c9.5-3.2,19-5,29.1-5.2C417.5,205.4,417.5,194.5,410.4,194.6z"/>
			</g>
		</g>
	</g>
</g>
<g id="XMLID_135_">
	<path id="XMLID_139_" fill="#F2F2F2" d="M205.8,385.9h-5.1c-1.1,0-1.9-0.9-1.9-1.9v-65.1c0-1.1,0.9-1.9,1.9-1.9h5.1
		c1.1,0,1.9,0.9,1.9,1.9V384C207.7,385,206.9,385.9,205.8,385.9z"/>
	<path id="XMLID_138_" fill="#F2F2F2" d="M168.8,353.9v-5.1c0-1.1,0.9-1.9,1.9-1.9h65.1c1.1,0,1.9,0.9,1.9,1.9v5.1
		c0,1.1-0.9,1.9-1.9,1.9h-65.1C169.7,355.9,168.8,355,168.8,353.9z"/>
	<path id="XMLID_137_" fill="#F2F2F2" d="M180.7,377.6l-3.6-3.6c-0.7-0.7-0.7-2,0-2.7l46-46c0.7-0.7,2-0.7,2.7,0l3.6,3.6
		c0.7,0.7,0.7,2,0,2.7l-46,46C182.7,378.3,181.4,378.3,180.7,377.6z"/>
	<path id="XMLID_136_" fill="#F2F2F2" d="M177.1,328.8l3.6-3.6c0.7-0.7,2-0.7,2.7,0l46,46c0.7,0.7,0.7,2,0,2.7l-3.6,3.6
		c-0.7,0.7-2,0.7-2.7,0l-46-46C176.4,330.8,176.4,329.6,177.1,328.8z"/>
</g>
<g id="XMLID_1_">
	<path id="XMLID_5_" fill="#F2F2F2" d="M310.8,385.9h-5.1c-1.1,0-1.9-0.9-1.9-1.9v-65.1c0-1.1,0.9-1.9,1.9-1.9h5.1
		c1.1,0,1.9,0.9,1.9,1.9V384C312.7,385,311.9,385.9,310.8,385.9z"/>
	<path id="XMLID_4_" fill="#F2F2F2" d="M273.8,353.9v-5.1c0-1.1,0.9-1.9,1.9-1.9h65.1c1.1,0,1.9,0.9,1.9,1.9v5.1c0,1.1-0.9,1.9-1.9,1.9
		h-65.1C274.7,355.9,273.8,355,273.8,353.9z"/>
	<path id="XMLID_3_" fill="#F2F2F2" d="M285.7,377.6l-3.6-3.6c-0.7-0.7-0.7-2,0-2.7l46-46c0.7-0.7,2-0.7,2.7,0l3.6,3.6
		c0.7,0.7,0.7,2,0,2.7l-46,46C287.7,378.3,286.4,378.3,285.7,377.6z"/>
	<path id="XMLID_2_" fill="#F2F2F2" d="M282.1,328.8l3.6-3.6c0.7-0.7,2-0.7,2.7,0l46,46c0.7,0.7,0.7,2,0,2.7l-3.6,3.6
		c-0.7,0.7-2,0.7-2.7,0l-46-46C281.4,330.8,281.4,329.6,282.1,328.8z"/>
</g>
    </symbol>
    <symbol version="1.1" id="overcast" xmlns="http://www.w3.org/2000/svg" xmlns:xlink="http://www.w3.org/1999/xlink" x="0px" y="0px" xml:space="preserve" viewBox="0 0 512 512">
    <g id="XMLID_18_">
	<g id="XMLID_46_">
		<g id="XMLID_49_">
			<path id="XMLID_52_" fill="#F2F2F2" d="M410.4,200.1c-10.4,0-20.7,1.8-30.5,5.4c-25.1-45.7-72.1-74-123.9-74
				c-51.7,0-98.8,28.2-123.9,74c-9.9-3.6-20.1-5.4-30.5-5.4c-49.8,0-90.3,40.5-90.3,90.3s40.5,90.3,90.3,90.3
				c11.8,0,23.4-2.3,34.2-6.8v-10c-10.7,5-22.3,7.7-34.2,7.7c-44.8,0-81.2-36.4-81.2-81.2s36.4-81.2,81.2-81.2
				c10.6,0,21,2.1,30.9,6.2l3.9,1.6l1.9-3.7c23-44.8,68.1-72.7,117.7-72.7s94.7,27.8,117.7,72.7l1.9,3.7l3.9-1.6
				c9.9-4.1,20.3-6.2,30.9-6.2c44.8,0,81.2,36.4,81.2,81.2s-36.4,81.2-81.2,81.2c-11.9,0-23.5-2.6-34.2-7.7v10
				c10.8,4.5,22.4,6.8,34.2,6.8c49.8,0,90.3-40.5,90.3-90.3S460.2,200.1,410.4,200.1z"/>
			<g id="XMLID_50_">
				<path id="XMLID_51_" fill="#F2F2F2" d="M410.4,194.6c-11,0.2-21.6,2-32,5.6c2.1,0.8,4.1,1.7,6.2,2.5c-26-46.5-75-76.7-128.6-76.7
					s-102.6,30.2-128.6,76.7c2.1-0.8,4.1-1.7,6.2-2.5C85.9,183.9,32.8,207,13.2,253.7C-5,297.2,12.4,348.9,53,372.9
					c25.6,15.1,56.8,17.2,84.3,6.3c2.3-0.9,4-2.7,4-5.3c0-3.3,0-6.7,0-10c0-4.5-4.6-6.4-8.2-4.7c-51.6,23.1-110.6-17.3-107-73.8
					c1.5-24.6,15.6-47.3,36.7-59.9c22.6-13.6,48.3-13,72.2-3.2c2.1,0.9,5.2-0.6,6.2-2.5C163.6,175.9,205.8,146,256,146
					s92.4,29.8,114.9,73.7c1,1.9,4.1,3.4,6.2,2.5c23.9-9.9,49.6-10.4,72.2,3.2c21.1,12.6,35.2,35.4,36.7,59.9
					c3.5,56.5-55.5,96.9-107,73.8c-3.7-1.6-8.2,0.2-8.2,4.7c0,3.3,0,6.7,0,10c0,2.6,1.7,4.4,4,5.3c43.6,17.2,94.2,0.3,118.2-40.1
					c22.4-37.9,15.4-87.8-16.5-118.1C458.5,204,435,194.9,410.4,194.6c-7-0.1-7.1,10.9,0,10.9c51.3,0.7,92.3,47.1,83.8,98.5
					c-8.9,54.1-66.3,84.3-116.5,64.6c1.3,1.8,2.7,3.5,4,5.3c0-3.3,0-6.7,0-10c-2.7,1.6-5.5,3.2-8.2,4.7c44.4,19.9,97.4,1,116.7-44.5
					c17.6-41.3-0.5-90.9-40.6-111.1c-24.1-12.2-50.8-11.6-75.5-1.4c2.1,0.8,4.1,1.7,6.2,2.5C356.1,166.9,309.9,135,256,135
					s-100.1,31.9-124.3,79.1c2.1-0.8,4.1-1.7,6.2-2.5C95,194,44.7,209.3,23.8,252.3c-19.7,40.5-4.5,90.6,34.4,113.2
					c24.8,14.4,54.4,14.8,80.3,3.2c-2.7-1.6-5.5-3.2-8.2-4.7c0,3.3,0,6.7,0,10c1.3-1.8,2.7-3.5,4-5.3c-54.8,21.6-116.7-17-117.6-77
					c-0.8-59.3,58.7-99.9,113.9-81c2.2,0.8,5.1-0.5,6.2-2.5C161,165,206.1,136.9,256,136.9s94.9,28,119.1,71.3
					c1.1,2,3.9,3.3,6.2,2.5c9.5-3.2,19-5,29.1-5.2C417.5,205.4,417.5,194.5,410.4,194.6z"/>
			</g>
		</g>
	</g>
</g>
<g id="XMLID_491_">
	<g id="XMLID_492_">
		<g id="XMLID_493_">
			<g id="XMLID_497_">
				<path id="XMLID_540_" fill="#F1F2F2" d="M256,383.6c-7.9,0-15.5-3.5-20.8-9.5c-2.9,1.8-6.1,2.8-9.5,2.8c-9.8,0-17.7-8-17.7-17.7
					c0-9.8,8-17.7,17.7-17.7c2,0,4.1,0.4,6,1.1c4.9-9,14.2-14.5,24.3-14.5c10.2,0,19.4,5.5,24.3,14.5c1.9-0.7,3.9-1.1,6-1.1
					c9.8,0,17.7,8,17.7,17.7c0,9.8-8,17.7-17.7,17.7c-3.4,0-6.6-1-9.5-2.8C271.5,380.1,263.9,383.6,256,383.6z M235.5,371.7l0.5,0.6
					c5,6,12.3,9.5,19.9,9.5s14.9-3.5,19.9-9.5l0.5-0.6l0.7,0.5c2.7,1.9,5.9,2.9,9.2,2.9c8.8,0,15.9-7.2,15.9-15.9
					s-7.2-15.9-15.9-15.9c-2.1,0-4.1,0.4-6.1,1.2l-0.8,0.3l-0.4-0.7c-4.5-8.8-13.4-14.3-23.1-14.3c-9.7,0-18.6,5.5-23.1,14.3
					l-0.4,0.7l-0.8-0.3c-1.9-0.8-4-1.2-6.1-1.2c-8.8,0-15.9,7.2-15.9,15.9s7.2,15.9,15.9,15.9c3.3,0,6.4-1,9.2-2.9L235.5,371.7z"/>
				<path id="XMLID_545_" fill="#F1F2F2" d="M256,385c-7.9,0-15.5-3.3-21.1-9.1c-2.8,1.6-6,2.4-9.2,2.4c-10.5,0-19.1-8.6-19.1-19.1
					s8.6-19.1,19.1-19.1c1.8,0,3.6,0.3,5.4,0.8c5.3-8.8,14.7-14.2,25-14.2c10.2,0,19.7,5.4,25,14.2c1.7-0.5,3.5-0.8,5.4-0.8
					c10.5,0,19.1,8.6,19.1,19.1s-8.6,19.1-19.1,19.1c-3.2,0-6.4-0.8-9.2-2.4C271.5,381.7,263.9,385,256,385z M235.8,369.8l1.3,1.6
					c4.7,5.7,11.6,9,18.9,9c7.3,0,14.1-3.3,18.9-9l1.3-1.6l1.7,1.2c2.5,1.7,5.4,2.7,8.4,2.7c8,0,14.6-6.5,14.6-14.6
					s-6.5-14.6-14.6-14.6c-1.9,0-3.8,0.4-5.5,1.1l-1.9,0.8l-1-1.9c-4.3-8.3-12.7-13.5-21.9-13.5c-9.2,0-17.6,5.2-21.9,13.5l-1,1.9
					l-1.9-0.8c-1.8-0.7-3.6-1.1-5.5-1.1c-8,0-14.6,6.5-14.6,14.6s6.5,14.6,14.6,14.6c3,0,5.9-0.9,8.4-2.7L235.8,369.8z"/>
			</g>
			<g id="XMLID_494_">
				<g id="XMLID_496_">
					<path id="XMLID_525_" fill="#F1F2F2" d="M256,382.5c-7.8-0.1-14.9-3.5-20-9.2c-0.3-0.3-0.9-0.4-1.3-0.2
						c-5.3,3.2-11.8,3.6-17.2,0.4c-4.7-2.7-7.9-7.6-8.3-13c-1.1-12.1,11-21,22.3-17.1c0.4,0.2,1-0.1,1.2-0.5
						c4.7-8.5,13.6-14,23.4-14c9.8,0,18.6,5.5,23.4,14c0.2,0.4,0.8,0.6,1.2,0.5c11.3-3.9,23.4,5,22.3,17.1c-0.5,5.4-3.7,10.3-8.3,13
						c-5.4,3.1-12,2.8-17.2-0.4c-0.4-0.2-1-0.2-1.3,0.2C270.9,379.1,263.8,382.4,256,382.5c-1.4,0-1.4,2.2,0,2.1
						c8.3-0.1,16-3.7,21.6-9.8c-0.4,0.1-0.9,0.1-1.3,0.2c8.9,5.5,20.9,2.8,26.2-6.3c5-8.5,2.4-19.6-5.6-25.1
						c-4.9-3.4-11.2-4.1-16.8-2.2c0.4,0.2,0.8,0.3,1.2,0.5c-5.1-9.1-14.7-15.1-25.2-15.1c-10.5,0-20.1,5.9-25.2,15.1
						c0.4-0.2,0.8-0.3,1.2-0.5c-9.7-3.3-20.5,1.7-24,11.4c-3.4,9.3,1.4,19.9,10.5,23.6c5.7,2.4,12.1,1.7,17.3-1.5
						c-0.4-0.1-0.9-0.1-1.3-0.2c5.5,6.2,13.3,9.8,21.6,9.8C257.4,384.7,257.4,382.5,256,382.5z"/>
					<path id="XMLID_526_" fill="#F1F2F2" d="M256,386.1C256,386.1,255.9,386.1,256,386.1c-8.1-0.1-15.5-3.3-21.3-8.9
						c-5.3,2.6-11.4,2.9-16.8,0.6c-9.8-4.1-14.8-15.5-11.3-25.4c3.5-9.7,13.9-15.2,23.9-12.8c5.6-8.7,15.2-14.1,25.4-14.1
						c10.2,0,19.8,5.4,25.4,14.1c5.6-1.4,11.5-0.3,16.2,2.9c8.8,6,11.4,17.9,6.1,26.9c-2.7,4.6-7.2,7.9-12.5,9.2
						c-4.7,1.2-9.7,0.6-13.9-1.5C271.6,382.8,264.1,386,256,386.1C256.1,386.1,256,386.1,256,386.1C256,386.1,256,386.1,256,386.1z
						 M239.1,374.5c4.7,4.2,10.6,6.6,16.9,6.6c6.3-0.1,12.2-2.4,16.9-6.6l-0.7-0.4l1.3-0.2c0.5-0.5,1-1,1.5-1.6c0.7-0.8,2.1-1,3-0.4
						c0.7,0.4,1.4,0.8,2.2,1.1l0.8-0.1l-0.3,0.3c4.3,1.7,9.1,1.4,13.1-0.9c4.3-2.5,7.2-7,7.6-11.9c0.4-5.2-1.7-10-5.8-13.2
						c-3.4-2.6-7.6-3.8-11.7-3.2l0.3,0.6l-1.1-0.4c-0.7,0.1-1.5,0.3-2.2,0.6c-1,0.4-2.3-0.1-2.9-1.1c-0.4-0.7-0.8-1.4-1.3-2
						l-0.8-0.3l0.5-0.2c-4.8-6.7-12.5-10.8-20.6-10.8c0,0,0,0,0,0c-8.1,0-15.7,4.1-20.6,10.8l0.5,0.2l-0.8,0.3
						c-0.4,0.7-0.9,1.3-1.3,2c-0.6,1-1.8,1.5-2.9,1.1c-0.7-0.2-1.5-0.4-2.2-0.6l-1.1,0.5l0.3-0.6c-4.1-0.6-8.3,0.6-11.7,3.2
						c-4.1,3.2-6.2,8-5.8,13.2c0.4,4.9,3.4,9.4,7.6,11.9c4,2.3,8.8,2.6,13.1,0.9l-0.3-0.3l0.8,0.1c0.7-0.3,1.5-0.7,2.2-1.1
						c1-0.6,2.3-0.4,3,0.4c0.5,0.6,1,1.1,1.5,1.6l1.2,0.2L239.1,374.5z"/>
				</g>
				<g id="XMLID_495_">
					<path id="XMLID_521_" fill="#F1F2F2" d="M234.8,372.4c5.3,6.4,12.8,10.4,21.2,10.5c8.4,0,15.9-4.1,21.2-10.4
						c-0.4,0.1-0.9,0.1-1.3,0.2c4.2,2.9,9,4.2,14,3.1c4.5-1,8.4-3.8,10.8-7.7c5-8.1,2.1-19.1-6.2-23.8c-4.8-2.7-10.4-2.7-15.4-0.6
						c0.4,0.2,0.8,0.3,1.2,0.5c-4.7-9.3-13.8-15.5-24.4-15.5c-10.6,0-19.7,6.3-24.4,15.5c0.4-0.2,0.8-0.3,1.2-0.5
						c-9-3.7-19.3,0-23,9.3c-3.5,8.9,1.4,19.1,10.4,22.3c5.5,1.9,11.2,0.6,15.9-2.6c1.1-0.8,0-2.7-1.1-1.9
						c-4.7,3.3-10.4,4.3-15.7,1.8c-4.7-2.3-8-7-8.4-12.2c-0.4-5.2,2-10.3,6.2-13.4c4.6-3.2,10.1-3.4,15.1-1.3c0.4,0.2,1-0.1,1.2-0.5
						c4.4-8.6,12.7-14.5,22.6-14.5c9.9,0,18.1,5.9,22.5,14.5c0.2,0.4,0.8,0.7,1.2,0.5c5-2.1,10.4-2,15,1.1c4.4,3,6.8,8.2,6.4,13.5
						c-0.4,5.1-3.6,9.8-8.2,12.1c-5.3,2.7-11.2,1.6-15.9-1.7c-0.4-0.3-1-0.2-1.3,0.2c-5,6-11.8,9.8-19.7,9.8
						c-7.9,0-14.8-3.9-19.7-9.8C235.4,369.9,233.9,371.4,234.8,372.4z"/>
					<path id="XMLID_522_" fill="#F1F2F2" d="M256,384.3C256,384.3,256,384.3,256,384.3c-7.9,0-15.3-3.3-20.9-9.4
						c-4.9,2.8-10.4,3.4-15.3,1.7c-4.7-1.6-8.6-5.2-10.7-9.8c-2.1-4.6-2.3-9.7-0.5-14.3c1.8-4.6,5.3-8.2,9.8-10.1
						c4.1-1.7,8.7-1.9,13-0.7c5.4-9,14.6-14.5,24.6-14.5c10,0,19.3,5.5,24.6,14.4c5.1-1.6,10.3-1.1,14.7,1.4
						c4.3,2.4,7.5,6.6,8.8,11.5c1.3,4.9,0.5,10-2.1,14.2c-2.6,4.3-6.9,7.3-11.7,8.3c-4.5,1-9.1,0.2-13.3-2.2
						C271.3,380.9,263.8,384.3,256,384.3z M235.7,369.2c0.6,0,1.2,0.3,1.7,0.9c5,6,11.6,9.3,18.6,9.3c0,0,0,0,0,0
						c6.2,0,12.1-2.6,16.8-7.3l-0.5-0.4l1.1-0.1c0.5-0.5,0.9-1,1.4-1.5c0.7-0.9,2.2-1.1,3.2-0.4c0.6,0.4,1.2,0.8,1.8,1.1l0.9-0.1
						l-0.3,0.4c4,2,8.3,2.1,12.1,0.2c4.2-2.1,7.1-6.3,7.5-11c0.4-4.8-1.8-9.5-5.8-12.2c-3.2-2.2-7-2.8-11-1.9l0.4,0.7l-1.2-0.5
						c-0.6,0.2-1.2,0.4-1.9,0.7c-1,0.4-2.4-0.1-3-1.1c-0.3-0.7-0.7-1.3-1.1-1.9l-0.7-0.3l0.4-0.2c-4.6-7.2-11.9-11.4-20-11.4
						c-8.1,0-15.4,4.2-20,11.4l0.4,0.2l-0.7,0.3c-0.4,0.6-0.7,1.3-1.1,1.9c-0.5,1-1.9,1.6-3,1.1c-0.6-0.3-1.2-0.5-1.9-0.7l-1.2,0.5
						l0.4-0.7c-4-1-7.9-0.3-11.1,2c-3.9,2.7-6,7.4-5.6,12.1c0.4,4.7,3.4,9,7.6,11.1c4.5,2.2,9.7,1.5,14.3-1.7
						C234.6,369.3,235.2,369.2,235.7,369.2z"/>
				</g>
			</g>
		</g>
	</g>
</g>
    </symbol>
    <symbol version="1.1" id="rain_thunder" xmlns="http://www.w3.org/2000/svg" xmlns:xlink="http://www.w3.org/1999/xlink" x="0px" y="0px" xml:space="preserve" viewBox="0 0 512 512">
    <g id="XMLID_18_">
	<g id="XMLID_46_">
		<g id="XMLID_49_">
			<path id="XMLID_52_" fill="#F2F2F2" d="M410.4,200.1c-10.4,0-20.7,1.8-30.5,5.4c-25.1-45.7-72.1-74-123.9-74
				c-51.7,0-98.8,28.2-123.9,74c-9.9-3.6-20.1-5.4-30.5-5.4c-49.8,0-90.3,40.5-90.3,90.3s40.5,90.3,90.3,90.3
				c11.8,0,23.4-2.3,34.2-6.8v-10c-10.7,5-22.3,7.7-34.2,7.7c-44.8,0-81.2-36.4-81.2-81.2s36.4-81.2,81.2-81.2
				c10.6,0,21,2.1,30.9,6.2l3.9,1.6l1.9-3.7c23-44.8,68.1-72.7,117.7-72.7s94.7,27.8,117.7,72.7l1.9,3.7l3.9-1.6
				c9.9-4.1,20.3-6.2,30.9-6.2c44.8,0,81.2,36.4,81.2,81.2s-36.4,81.2-81.2,81.2c-11.9,0-23.5-2.6-34.2-7.7v10
				c10.8,4.5,22.4,6.8,34.2,6.8c49.8,0,90.3-40.5,90.3-90.3S460.2,200.1,410.4,200.1z"/>
			<g id="XMLID_50_">
				<path id="XMLID_51_" fill="#F2F2F2" d="M410.4,194.6c-11,0.2-21.6,2-32,5.6c2.1,0.8,4.1,1.7,6.2,2.5c-26-46.5-75-76.7-128.6-76.7
					s-102.6,30.2-128.6,76.7c2.1-0.8,4.1-1.7,6.2-2.5C85.9,183.9,32.8,207,13.2,253.7C-5,297.2,12.4,348.9,53,372.9
					c25.6,15.1,56.8,17.2,84.3,6.3c2.3-0.9,4-2.7,4-5.3c0-3.3,0-6.7,0-10c0-4.5-4.6-6.4-8.2-4.7c-51.6,23.1-110.6-17.3-107-73.8
					c1.5-24.6,15.6-47.3,36.7-59.9c22.6-13.6,48.3-13,72.2-3.2c2.1,0.9,5.2-0.6,6.2-2.5C163.6,175.9,205.8,146,256,146
					s92.4,29.8,114.9,73.7c1,1.9,4.1,3.4,6.2,2.5c23.9-9.9,49.6-10.4,72.2,3.2c21.1,12.6,35.2,35.4,36.7,59.9
					c3.5,56.5-55.5,96.9-107,73.8c-3.7-1.6-8.2,0.2-8.2,4.7c0,3.3,0,6.7,0,10c0,2.6,1.7,4.4,4,5.3c43.6,17.2,94.2,0.3,118.2-40.1
					c22.4-37.9,15.4-87.8-16.5-118.1C458.5,204,435,194.9,410.4,194.6c-7-0.1-7.1,10.9,0,10.9c51.3,0.7,92.3,47.1,83.8,98.5
					c-8.9,54.1-66.3,84.3-116.5,64.6c1.3,1.8,2.7,3.5,4,5.3c0-3.3,0-6.7,0-10c-2.7,1.6-5.5,3.2-8.2,4.7c44.4,19.9,97.4,1,116.7-44.5
					c17.6-41.3-0.5-90.9-40.6-111.1c-24.1-12.2-50.8-11.6-75.5-1.4c2.1,0.8,4.1,1.7,6.2,2.5C356.1,166.9,309.9,135,256,135
					s-100.1,31.9-124.3,79.1c2.1-0.8,4.1-1.7,6.2-2.5C95,194,44.7,209.3,23.8,252.3c-19.7,40.5-4.5,90.6,34.4,113.2
					c24.8,14.4,54.4,14.8,80.3,3.2c-2.7-1.6-5.5-3.2-8.2-4.7c0,3.3,0,6.7,0,10c1.3-1.8,2.7-3.5,4-5.3c-54.8,21.6-116.7-17-117.6-77
					c-0.8-59.3,58.7-99.9,113.9-81c2.2,0.8,5.1-0.5,6.2-2.5C161,165,206.1,136.9,256,136.9s94.9,28,119.1,71.3
					c1.1,2,3.9,3.3,6.2,2.5c9.5-3.2,19-5,29.1-5.2C417.5,205.4,417.5,194.5,410.4,194.6z"/>
			</g>
		</g>
	</g>
</g>
<path id="XMLID_114_" fill="#2BACE2" d="M181.3,365.4c3.5,9,13.7,13.4,22.7,9.8c9-3.5,13.4-13.7,9.8-22.7c-3.5-9-29.1-26.1-29.1-26.1
	S177.8,356.4,181.3,365.4z"/>
<g id="XMLID_144_">
	<path id="XMLID_182_" fill="#FCEE23" d="M278.1,387l-62.9-77.8l28.3-8.2l-9.7-59.9l62.9,77.8l-28.3,8.2L278.1,387z M226.9,312.8
		l40.5,50.1l-6.6-40.7l24.3-7l-40.5-50.1l6.6,40.7L226.9,312.8z"/>
</g>
<path id="XMLID_1_" fill="#2BACE2" d="M299.3,365.4c3.5,9,13.7,13.4,22.7,9.8c9-3.5,13.4-13.7,9.8-22.7c-3.5-9-29.1-26.1-29.1-26.1
	S295.8,356.4,299.3,365.4z"/>
    </symbol>
    <symbol version="1.1" id="rain" xmlns="http://www.w3.org/2000/svg" xmlns:xlink="http://www.w3.org/1999/xlink" x="0px" y="0px" xml:space="preserve" viewBox="0 0 512 512">
    <g id="XMLID_18_">
	<g id="XMLID_46_">
		<g id="XMLID_49_">
			<path id="XMLID_52_" fill="#F2F2F2" d="M410.4,200.1c-10.4,0-20.7,1.8-30.5,5.4c-25.1-45.7-72.1-74-123.9-74
				c-51.7,0-98.8,28.2-123.9,74c-9.9-3.6-20.1-5.4-30.5-5.4c-49.8,0-90.3,40.5-90.3,90.3s40.5,90.3,90.3,90.3
				c11.8,0,23.4-2.3,34.2-6.8v-10c-10.7,5-22.3,7.7-34.2,7.7c-44.8,0-81.2-36.4-81.2-81.2s36.4-81.2,81.2-81.2
				c10.6,0,21,2.1,30.9,6.2l3.9,1.6l1.9-3.7c23-44.8,68.1-72.7,117.7-72.7s94.7,27.8,117.7,72.7l1.9,3.7l3.9-1.6
				c9.9-4.1,20.3-6.2,30.9-6.2c44.8,0,81.2,36.4,81.2,81.2s-36.4,81.2-81.2,81.2c-11.9,0-23.5-2.6-34.2-7.7v10
				c10.8,4.5,22.4,6.8,34.2,6.8c49.8,0,90.3-40.5,90.3-90.3S460.2,200.1,410.4,200.1z"/>
			<g id="XMLID_50_">
				<path id="XMLID_51_" fill="#F2F2F2" d="M410.4,194.6c-11,0.2-21.6,2-32,5.6c2.1,0.8,4.1,1.7,6.2,2.5c-26-46.5-75-76.7-128.6-76.7
					s-102.6,30.2-128.6,76.7c2.1-0.8,4.1-1.7,6.2-2.5C85.9,183.9,32.8,207,13.2,253.7C-5,297.2,12.4,348.9,53,372.9
					c25.6,15.1,56.8,17.2,84.3,6.3c2.3-0.9,4-2.7,4-5.3c0-3.3,0-6.7,0-10c0-4.5-4.6-6.4-8.2-4.7c-51.6,23.1-110.6-17.3-107-73.8
					c1.5-24.6,15.6-47.3,36.7-59.9c22.6-13.6,48.3-13,72.2-3.2c2.1,0.9,5.2-0.6,6.2-2.5C163.6,175.9,205.8,146,256,146
					s92.4,29.8,114.9,73.7c1,1.9,4.1,3.4,6.2,2.5c23.9-9.9,49.6-10.4,72.2,3.2c21.1,12.6,35.2,35.4,36.7,59.9
					c3.5,56.5-55.5,96.9-107,73.8c-3.7-1.6-8.2,0.2-8.2,4.7c0,3.3,0,6.7,0,10c0,2.6,1.7,4.4,4,5.3c43.6,17.2,94.2,0.3,118.2-40.1
					c22.4-37.9,15.4-87.8-16.5-118.1C458.5,204,435,194.9,410.4,194.6c-7-0.1-7.1,10.9,0,10.9c51.3,0.7,92.3,47.1,83.8,98.5
					c-8.9,54.1-66.3,84.3-116.5,64.6c1.3,1.8,2.7,3.5,4,5.3c0-3.3,0-6.7,0-10c-2.7,1.6-5.5,3.2-8.2,4.7c44.4,19.9,97.4,1,116.7-44.5
					c17.6-41.3-0.5-90.9-40.6-111.1c-24.1-12.2-50.8-11.6-75.5-1.4c2.1,0.8,4.1,1.7,6.2,2.5C356.1,166.9,309.9,135,256,135
					s-100.1,31.9-124.3,79.1c2.1-0.8,4.1-1.7,6.2-2.5C95,194,44.7,209.3,23.8,252.3c-19.7,40.5-4.5,90.6,34.4,113.2
					c24.8,14.4,54.4,14.8,80.3,3.2c-2.7-1.6-5.5-3.2-8.2-4.7c0,3.3,0,6.7,0,10c1.3-1.8,2.7-3.5,4-5.3c-54.8,21.6-116.7-17-117.6-77
					c-0.8-59.3,58.7-99.9,113.9-81c2.2,0.8,5.1-0.5,6.2-2.5C161,165,206.1,136.9,256,136.9s94.9,28,119.1,71.3
					c1.1,2,3.9,3.3,6.2,2.5c9.5-3.2,19-5,29.1-5.2C417.5,205.4,417.5,194.5,410.4,194.6z"/>
			</g>
		</g>
	</g>
</g>
<path id="XMLID_114_" fill="#2BACE2" d="M287,369.2c5.2,13.1,20,19.6,33.2,14.4c13.1-5.2,19.6-20,14.4-33.2
	c-5.2-13.1-42.6-38.2-42.6-38.2S281.8,356.1,287,369.2z"/>
<path id="XMLID_1_" fill="#2BACE2" d="M180,369.2c5.2,13.1,20,19.6,33.2,14.4c13.1-5.2,19.6-20,14.4-33.2
	c-5.2-13.1-42.6-38.2-42.6-38.2S174.8,356.1,180,369.2z"/>
    </symbol>
    <symbol version="1.1" id="sleet" xmlns="http://www.w3.org/2000/svg" xmlns:xlink="http://www.w3.org/1999/xlink" x="0px" y="0px" xml:space="preserve" viewBox="0 0 512 512">
    <g id="XMLID_18_">
	<g id="XMLID_46_">
		<g id="XMLID_49_">
			<path id="XMLID_52_" fill="#F2F2F2" d="M410.4,200.1c-10.4,0-20.7,1.8-30.5,5.4c-25.1-45.7-72.1-74-123.9-74
				c-51.7,0-98.8,28.2-123.9,74c-9.9-3.6-20.1-5.4-30.5-5.4c-49.8,0-90.3,40.5-90.3,90.3s40.5,90.3,90.3,90.3
				c11.8,0,23.4-2.3,34.2-6.8v-10c-10.7,5-22.3,7.7-34.2,7.7c-44.8,0-81.2-36.4-81.2-81.2s36.4-81.2,81.2-81.2
				c10.6,0,21,2.1,30.9,6.2l3.9,1.6l1.9-3.7c23-44.8,68.1-72.7,117.7-72.7s94.7,27.8,117.7,72.7l1.9,3.7l3.9-1.6
				c9.9-4.1,20.3-6.2,30.9-6.2c44.8,0,81.2,36.4,81.2,81.2s-36.4,81.2-81.2,81.2c-11.9,0-23.5-2.6-34.2-7.7v10
				c10.8,4.5,22.4,6.8,34.2,6.8c49.8,0,90.3-40.5,90.3-90.3S460.2,200.1,410.4,200.1z"/>
			<g id="XMLID_50_">
				<path id="XMLID_51_" fill="#F2F2F2" d="M410.4,194.6c-11,0.2-21.6,2-32,5.6c2.1,0.8,4.1,1.7,6.2,2.5c-26-46.5-75-76.7-128.6-76.7
					s-102.6,30.2-128.6,76.7c2.1-0.8,4.1-1.7,6.2-2.5C85.9,183.9,32.8,207,13.2,253.7C-5,297.2,12.4,348.9,53,372.9
					c25.6,15.1,56.8,17.2,84.3,6.3c2.3-0.9,4-2.7,4-5.3c0-3.3,0-6.7,0-10c0-4.5-4.6-6.4-8.2-4.7c-51.6,23.1-110.6-17.3-107-73.8
					c1.5-24.6,15.6-47.3,36.7-59.9c22.6-13.6,48.3-13,72.2-3.2c2.1,0.9,5.2-0.6,6.2-2.5C163.6,175.9,205.8,146,256,146
					s92.4,29.8,114.9,73.7c1,1.9,4.1,3.4,6.2,2.5c23.9-9.9,49.6-10.4,72.2,3.2c21.1,12.6,35.2,35.4,36.7,59.9
					c3.5,56.5-55.5,96.9-107,73.8c-3.7-1.6-8.2,0.2-8.2,4.7c0,3.3,0,6.7,0,10c0,2.6,1.7,4.4,4,5.3c43.6,17.2,94.2,0.3,118.2-40.1
					c22.4-37.9,15.4-87.8-16.5-118.1C458.5,204,435,194.9,410.4,194.6c-7-0.1-7.1,10.9,0,10.9c51.3,0.7,92.3,47.1,83.8,98.5
					c-8.9,54.1-66.3,84.3-116.5,64.6c1.3,1.8,2.7,3.5,4,5.3c0-3.3,0-6.7,0-10c-2.7,1.6-5.5,3.2-8.2,4.7c44.4,19.9,97.4,1,116.7-44.5
					c17.6-41.3-0.5-90.9-40.6-111.1c-24.1-12.2-50.8-11.6-75.5-1.4c2.1,0.8,4.1,1.7,6.2,2.5C356.1,166.9,309.9,135,256,135
					s-100.1,31.9-124.3,79.1c2.1-0.8,4.1-1.7,6.2-2.5C95,194,44.7,209.3,23.8,252.3c-19.7,40.5-4.5,90.6,34.4,113.2
					c24.8,14.4,54.4,14.8,80.3,3.2c-2.7-1.6-5.5-3.2-8.2-4.7c0,3.3,0,6.7,0,10c1.3-1.8,2.7-3.5,4-5.3c-54.8,21.6-116.7-17-117.6-77
					c-0.8-59.3,58.7-99.9,113.9-81c2.2,0.8,5.1-0.5,6.2-2.5C161,165,206.1,136.9,256,136.9s94.9,28,119.1,71.3
					c1.1,2,3.9,3.3,6.2,2.5c9.5-3.2,19-5,29.1-5.2C417.5,205.4,417.5,194.5,410.4,194.6z"/>
			</g>
		</g>
	</g>
</g>
<path id="XMLID_114_" fill="#2BACE2" d="M287,369.2c5.2,13.1,20,19.6,33.2,14.4c13.1-5.2,19.6-20,14.4-33.2
	c-5.2-13.1-42.6-38.2-42.6-38.2S281.8,356.1,287,369.2z"/>
<g id="XMLID_135_">
	<path id="XMLID_139_" fill="#F2F2F2" d="M205.8,385.9h-5.1c-1.1,0-1.9-0.9-1.9-1.9v-65.1c0-1.1,0.9-1.9,1.9-1.9h5.1
		c1.1,0,1.9,0.9,1.9,1.9V384C207.7,385,206.9,385.9,205.8,385.9z"/>
	<path id="XMLID_138_" fill="#F2F2F2" d="M168.8,353.9v-5.1c0-1.1,0.9-1.9,1.9-1.9h65.1c1.1,0,1.9,0.9,1.9,1.9v5.1
		c0,1.1-0.9,1.9-1.9,1.9h-65.1C169.7,355.9,168.8,355,168.8,353.9z"/>
	<path id="XMLID_137_" fill="#F2F2F2" d="M180.7,377.6l-3.6-3.6c-0.7-0.7-0.7-2,0-2.7l46-46c0.7-0.7,2-0.7,2.7,0l3.6,3.6
		c0.7,0.7,0.7,2,0,2.7l-46,46C182.7,378.3,181.4,378.3,180.7,377.6z"/>
	<path id="XMLID_136_" fill="#F2F2F2" d="M177.1,328.8l3.6-3.6c0.7-0.7,2-0.7,2.7,0l46,46c0.7,0.7,0.7,2,0,2.7l-3.6,3.6
		c-0.7,0.7-2,0.7-2.7,0l-46-46C176.4,330.8,176.4,329.6,177.1,328.8z"/>
</g>
    </symbol>
    <symbol version="1.1" id="snow_thunder" xmlns="http://www.w3.org/2000/svg" xmlns:xlink="http://www.w3.org/1999/xlink" x="0px" y="0px" xml:space="preserve" viewBox="0 0 512 512">
    <g id="XMLID_18_">
	<g id="XMLID_46_">
		<g id="XMLID_49_">
			<path id="XMLID_52_" fill="#F2F2F2" d="M410.4,200.1c-10.4,0-20.7,1.8-30.5,5.4c-25.1-45.7-72.1-74-123.9-74
				c-51.7,0-98.8,28.2-123.9,74c-9.9-3.6-20.1-5.4-30.5-5.4c-49.8,0-90.3,40.5-90.3,90.3s40.5,90.3,90.3,90.3
				c11.8,0,23.4-2.3,34.2-6.8v-10c-10.7,5-22.3,7.7-34.2,7.7c-44.8,0-81.2-36.4-81.2-81.2s36.4-81.2,81.2-81.2
				c10.6,0,21,2.1,30.9,6.2l3.9,1.6l1.9-3.7c23-44.8,68.1-72.7,117.7-72.7s94.7,27.8,117.7,72.7l1.9,3.7l3.9-1.6
				c9.9-4.1,20.3-6.2,30.9-6.2c44.8,0,81.2,36.4,81.2,81.2s-36.4,81.2-81.2,81.2c-11.9,0-23.5-2.6-34.2-7.7v10
				c10.8,4.5,22.4,6.8,34.2,6.8c49.8,0,90.3-40.5,90.3-90.3S460.2,200.1,410.4,200.1z"/>
			<g id="XMLID_50_">
				<path id="XMLID_51_" fill="#F2F2F2" d="M410.4,194.6c-11,0.2-21.6,2-32,5.6c2.1,0.8,4.1,1.7,6.2,2.5c-26-46.5-75-76.7-128.6-76.7
					s-102.6,30.2-128.6,76.7c2.1-0.8,4.1-1.7,6.2-2.5C85.9,183.9,32.8,207,13.2,253.7C-5,297.2,12.4,348.9,53,372.9
					c25.6,15.1,56.8,17.2,84.3,6.3c2.3-0.9,4-2.7,4-5.3c0-3.3,0-6.7,0-10c0-4.5-4.6-6.4-8.2-4.7c-51.6,23.1-110.6-17.3-107-73.8
					c1.5-24.6,15.6-47.3,36.7-59.9c22.6-13.6,48.3-13,72.2-3.2c2.1,0.9,5.2-0.6,6.2-2.5C163.6,175.9,205.8,146,256,146
					s92.4,29.8,114.9,73.7c1,1.9,4.1,3.4,6.2,2.5c23.9-9.9,49.6-10.4,72.2,3.2c21.1,12.6,35.2,35.4,36.7,59.9
					c3.5,56.5-55.5,96.9-107,73.8c-3.7-1.6-8.2,0.2-8.2,4.7c0,3.3,0,6.7,0,10c0,2.6,1.7,4.4,4,5.3c43.6,17.2,94.2,0.3,118.2-40.1
					c22.4-37.9,15.4-87.8-16.5-118.1C458.5,204,435,194.9,410.4,194.6c-7-0.1-7.1,10.9,0,10.9c51.3,0.7,92.3,47.1,83.8,98.5
					c-8.9,54.1-66.3,84.3-116.5,64.6c1.3,1.8,2.7,3.5,4,5.3c0-3.3,0-6.7,0-10c-2.7,1.6-5.5,3.2-8.2,4.7c44.4,19.9,97.4,1,116.7-44.5
					c17.6-41.3-0.5-90.9-40.6-111.1c-24.1-12.2-50.8-11.6-75.5-1.4c2.1,0.8,4.1,1.7,6.2,2.5C356.1,166.9,309.9,135,256,135
					s-100.1,31.9-124.3,79.1c2.1-0.8,4.1-1.7,6.2-2.5C95,194,44.7,209.3,23.8,252.3c-19.7,40.5-4.5,90.6,34.4,113.2
					c24.8,14.4,54.4,14.8,80.3,3.2c-2.7-1.6-5.5-3.2-8.2-4.7c0,3.3,0,6.7,0,10c1.3-1.8,2.7-3.5,4-5.3c-54.8,21.6-116.7-17-117.6-77
					c-0.8-59.3,58.7-99.9,113.9-81c2.2,0.8,5.1-0.5,6.2-2.5C161,165,206.1,136.9,256,136.9s94.9,28,119.1,71.3
					c1.1,2,3.9,3.3,6.2,2.5c9.5-3.2,19-5,29.1-5.2C417.5,205.4,417.5,194.5,410.4,194.6z"/>
			</g>
		</g>
	</g>
</g>
<g id="XMLID_135_">
	<path id="XMLID_139_" fill="#F2F2F2" d="M199,376.4h-2.6c-1.1,0-1.9-0.9-1.9-1.9v-46.2c0-1.1,0.9-1.9,1.9-1.9h2.6
		c1.1,0,1.9,0.9,1.9,1.9v46.2C200.9,375.6,200.1,376.4,199,376.4z"/>
	<path id="XMLID_138_" fill="#F2F2F2" d="M172.7,352.7v-2.6c0-1.1,0.9-1.9,1.9-1.9h46.2c1.1,0,1.9,0.9,1.9,1.9v2.6
		c0,1.1-0.9,1.9-1.9,1.9h-46.2C173.6,354.6,172.7,353.8,172.7,352.7z"/>
	<path id="XMLID_137_" fill="#F2F2F2" d="M180.9,370l-1.9-1.9c-0.7-0.7-0.7-2,0-2.7l32.6-32.6c0.7-0.7,2-0.7,2.7,0l1.9,1.9
		c0.7,0.7,0.7,2,0,2.7L183.7,370C182.9,370.8,181.7,370.8,180.9,370z"/>
	<path id="XMLID_136_" fill="#F2F2F2" d="M179.1,334.7l1.9-1.9c0.7-0.7,2-0.7,2.7,0l32.6,32.6c0.7,0.7,0.7,2,0,2.7l-1.9,1.9
		c-0.7,0.7-2,0.7-2.7,0l-32.6-32.6C178.3,336.6,178.3,335.4,179.1,334.7z"/>
</g>
<g id="XMLID_1_">
	<path id="XMLID_5_" fill="#F2F2F2" d="M315.2,376.4h-2.6c-1.1,0-1.9-0.9-1.9-1.9v-46.2c0-1.1,0.9-1.9,1.9-1.9h2.6
		c1.1,0,1.9,0.9,1.9,1.9v46.2C317.1,375.6,316.2,376.4,315.2,376.4z"/>
	<path id="XMLID_4_" fill="#F2F2F2" d="M288.9,352.7v-2.6c0-1.1,0.9-1.9,1.9-1.9H337c1.1,0,1.9,0.9,1.9,1.9v2.6c0,1.1-0.9,1.9-1.9,1.9
		h-46.2C289.7,354.6,288.9,353.8,288.9,352.7z"/>
	<path id="XMLID_3_" fill="#F2F2F2" d="M297.1,370l-1.9-1.9c-0.7-0.7-0.7-2,0-2.7l32.6-32.6c0.7-0.7,2-0.7,2.7,0l1.9,1.9
		c0.7,0.7,0.7,2,0,2.7L299.8,370C299.1,370.8,297.9,370.8,297.1,370z"/>
	<path id="XMLID_2_" fill="#F2F2F2" d="M295.3,334.7l1.9-1.9c0.7-0.7,2-0.7,2.7,0l32.6,32.6c0.7,0.7,0.7,2,0,2.7l-1.9,1.9
		c-0.7,0.7-2,0.7-2.7,0l-32.6-32.6C294.5,336.6,294.5,335.4,295.3,334.7z"/>
</g>
<g id="XMLID_144_">
	<path id="XMLID_182_" fill="#FCEE23" d="M278.1,387l-62.9-77.8l28.3-8.2l-9.7-59.9l62.9,77.8l-28.3,8.2L278.1,387z M226.9,312.8
		l40.5,50.1l-6.6-40.7l24.3-7l-40.5-50.1l6.6,40.7L226.9,312.8z"/>
</g>
    </symbol>
    <symbol version="1.1" id="snow" xmlns="http://www.w3.org/2000/svg" xmlns:xlink="http://www.w3.org/1999/xlink" x="0px" y="0px" xml:space="preserve" viewBox="0 0 512 512">
    <g id="XMLID_18_">
	<g id="XMLID_46_">
		<g id="XMLID_49_">
			<path id="XMLID_52_" fill="#F2F2F2" d="M410.4,200.1c-10.4,0-20.7,1.8-30.5,5.4c-25.1-45.7-72.1-74-123.9-74
				c-51.7,0-98.8,28.2-123.9,74c-9.9-3.6-20.1-5.4-30.5-5.4c-49.8,0-90.3,40.5-90.3,90.3s40.5,90.3,90.3,90.3
				c11.8,0,23.4-2.3,34.2-6.8v-10c-10.7,5-22.3,7.7-34.2,7.7c-44.8,0-81.2-36.4-81.2-81.2s36.4-81.2,81.2-81.2
				c10.6,0,21,2.1,30.9,6.2l3.9,1.6l1.9-3.7c23-44.8,68.1-72.7,117.7-72.7s94.7,27.8,117.7,72.7l1.9,3.7l3.9-1.6
				c9.9-4.1,20.3-6.2,30.9-6.2c44.8,0,81.2,36.4,81.2,81.2s-36.4,81.2-81.2,81.2c-11.9,0-23.5-2.6-34.2-7.7v10
				c10.8,4.5,22.4,6.8,34.2,6.8c49.8,0,90.3-40.5,90.3-90.3S460.2,200.1,410.4,200.1z"/>
			<g id="XMLID_50_">
				<path id="XMLID_51_" fill="#F2F2F2" d="M410.4,194.6c-11,0.2-21.6,2-32,5.6c2.1,0.8,4.1,1.7,6.2,2.5c-26-46.5-75-76.7-128.6-76.7
					s-102.6,30.2-128.6,76.7c2.1-0.8,4.1-1.7,6.2-2.5C85.9,183.9,32.8,207,13.2,253.7C-5,297.2,12.4,348.9,53,372.9
					c25.6,15.1,56.8,17.2,84.3,6.3c2.3-0.9,4-2.7,4-5.3c0-3.3,0-6.7,0-10c0-4.5-4.6-6.4-8.2-4.7c-51.6,23.1-110.6-17.3-107-73.8
					c1.5-24.6,15.6-47.3,36.7-59.9c22.6-13.6,48.3-13,72.2-3.2c2.1,0.9,5.2-0.6,6.2-2.5C163.6,175.9,205.8,146,256,146
					s92.4,29.8,114.9,73.7c1,1.9,4.1,3.4,6.2,2.5c23.9-9.9,49.6-10.4,72.2,3.2c21.1,12.6,35.2,35.4,36.7,59.9
					c3.5,56.5-55.5,96.9-107,73.8c-3.7-1.6-8.2,0.2-8.2,4.7c0,3.3,0,6.7,0,10c0,2.6,1.7,4.4,4,5.3c43.6,17.2,94.2,0.3,118.2-40.1
					c22.4-37.9,15.4-87.8-16.5-118.1C458.5,204,435,194.9,410.4,194.6c-7-0.1-7.1,10.9,0,10.9c51.3,0.7,92.3,47.1,83.8,98.5
					c-8.9,54.1-66.3,84.3-116.5,64.6c1.3,1.8,2.7,3.5,4,5.3c0-3.3,0-6.7,0-10c-2.7,1.6-5.5,3.2-8.2,4.7c44.4,19.9,97.4,1,116.7-44.5
					c17.6-41.3-0.5-90.9-40.6-111.1c-24.1-12.2-50.8-11.6-75.5-1.4c2.1,0.8,4.1,1.7,6.2,2.5C356.1,166.9,309.9,135,256,135
					s-100.1,31.9-124.3,79.1c2.1-0.8,4.1-1.7,6.2-2.5C95,194,44.7,209.3,23.8,252.3c-19.7,40.5-4.5,90.6,34.4,113.2
					c24.8,14.4,54.4,14.8,80.3,3.2c-2.7-1.6-5.5-3.2-8.2-4.7c0,3.3,0,6.7,0,10c1.3-1.8,2.7-3.5,4-5.3c-54.8,21.6-116.7-17-117.6-77
					c-0.8-59.3,58.7-99.9,113.9-81c2.2,0.8,5.1-0.5,6.2-2.5C161,165,206.1,136.9,256,136.9s94.9,28,119.1,71.3
					c1.1,2,3.9,3.3,6.2,2.5c9.5-3.2,19-5,29.1-5.2C417.5,205.4,417.5,194.5,410.4,194.6z"/>
			</g>
		</g>
	</g>
</g>
<g id="XMLID_135_">
	<path id="XMLID_139_" fill="#F2F2F2" d="M205.8,385.9h-5.1c-1.1,0-1.9-0.9-1.9-1.9v-65.1c0-1.1,0.9-1.9,1.9-1.9h5.1
		c1.1,0,1.9,0.9,1.9,1.9V384C207.7,385,206.9,385.9,205.8,385.9z"/>
	<path id="XMLID_138_" fill="#F2F2F2" d="M168.8,353.9v-5.1c0-1.1,0.9-1.9,1.9-1.9h65.1c1.1,0,1.9,0.9,1.9,1.9v5.1
		c0,1.1-0.9,1.9-1.9,1.9h-65.1C169.7,355.9,168.8,355,168.8,353.9z"/>
	<path id="XMLID_137_" fill="#F2F2F2" d="M180.7,377.6l-3.6-3.6c-0.7-0.7-0.7-2,0-2.7l46-46c0.7-0.7,2-0.7,2.7,0l3.6,3.6
		c0.7,0.7,0.7,2,0,2.7l-46,46C182.7,378.3,181.4,378.3,180.7,377.6z"/>
	<path id="XMLID_136_" fill="#F2F2F2" d="M177.1,328.8l3.6-3.6c0.7-0.7,2-0.7,2.7,0l46,46c0.7,0.7,0.7,2,0,2.7l-3.6,3.6
		c-0.7,0.7-2,0.7-2.7,0l-46-46C176.4,330.8,176.4,329.6,177.1,328.8z"/>
</g>
<g id="XMLID_1_">
	<path id="XMLID_5_" fill="#F2F2F2" d="M310.8,385.9h-5.1c-1.1,0-1.9-0.9-1.9-1.9v-65.1c0-1.1,0.9-1.9,1.9-1.9h5.1
		c1.1,0,1.9,0.9,1.9,1.9V384C312.7,385,311.9,385.9,310.8,385.9z"/>
	<path id="XMLID_4_" fill="#F2F2F2" d="M273.8,353.9v-5.1c0-1.1,0.9-1.9,1.9-1.9h65.1c1.1,0,1.9,0.9,1.9,1.9v5.1c0,1.1-0.9,1.9-1.9,1.9
		h-65.1C274.7,355.9,273.8,355,273.8,353.9z"/>
	<path id="XMLID_3_" fill="#F2F2F2" d="M285.7,377.6l-3.6-3.6c-0.7-0.7-0.7-2,0-2.7l46-46c0.7-0.7,2-0.7,2.7,0l3.6,3.6
		c0.7,0.7,0.7,2,0,2.7l-46,46C287.7,378.3,286.4,378.3,285.7,377.6z"/>
	<path id="XMLID_2_" fill="#F2F2F2" d="M282.1,328.8l3.6-3.6c0.7-0.7,2-0.7,2.7,0l46,46c0.7,0.7,0.7,2,0,2.7l-3.6,3.6
		c-0.7,0.7-2,0.7-2.7,0l-46-46C281.4,330.8,281.4,329.6,282.1,328.8z"/>
</g>
    </symbol>
    <symbol version="1.1" id="thunder" xmlns="http://www.w3.org/2000/svg" xmlns:xlink="http://www.w3.org/1999/xlink" x="0px" y="0px" xml:space="preserve" viewBox="0 0 512 512">
    <g id="XMLID_18_">
	<g id="XMLID_46_">
		<g id="XMLID_49_">
			<path id="XMLID_52_" fill="#F2F2F2" d="M410.4,200.1c-10.4,0-20.7,1.8-30.5,5.4c-25.1-45.7-72.1-74-123.9-74
				c-51.7,0-98.8,28.2-123.9,74c-9.9-3.6-20.1-5.4-30.5-5.4c-49.8,0-90.3,40.5-90.3,90.3s40.5,90.3,90.3,90.3
				c11.8,0,23.4-2.3,34.2-6.8v-10c-10.7,5-22.3,7.7-34.2,7.7c-44.8,0-81.2-36.4-81.2-81.2s36.4-81.2,81.2-81.2
				c10.6,0,21,2.1,30.9,6.2l3.9,1.6l1.9-3.7c23-44.8,68.1-72.7,117.7-72.7s94.7,27.8,117.7,72.7l1.9,3.7l3.9-1.6
				c9.9-4.1,20.3-6.2,30.9-6.2c44.8,0,81.2,36.4,81.2,81.2s-36.4,81.2-81.2,81.2c-11.9,0-23.5-2.6-34.2-7.7v10
				c10.8,4.5,22.4,6.8,34.2,6.8c49.8,0,90.3-40.5,90.3-90.3S460.2,200.1,410.4,200.1z"/>
			<g id="XMLID_50_">
				<path id="XMLID_51_" fill="#F2F2F2" d="M410.4,194.6c-11,0.2-21.6,2-32,5.6c2.1,0.8,4.1,1.7,6.2,2.5c-26-46.5-75-76.7-128.6-76.7
					s-102.6,30.2-128.6,76.7c2.1-0.8,4.1-1.7,6.2-2.5C85.9,183.9,32.8,207,13.2,253.7C-5,297.2,12.4,348.9,53,372.9
					c25.6,15.1,56.8,17.2,84.3,6.3c2.3-0.9,4-2.7,4-5.3c0-3.3,0-6.7,0-10c0-4.5-4.6-6.4-8.2-4.7c-51.6,23.1-110.6-17.3-107-73.8
					c1.5-24.6,15.6-47.3,36.7-59.9c22.6-13.6,48.3-13,72.2-3.2c2.1,0.9,5.2-0.6,6.2-2.5C163.6,175.9,205.8,146,256,146
					s92.4,29.8,114.9,73.7c1,1.9,4.1,3.4,6.2,2.5c23.9-9.9,49.6-10.4,72.2,3.2c21.1,12.6,35.2,35.4,36.7,59.9
					c3.5,56.5-55.5,96.9-107,73.8c-3.7-1.6-8.2,0.2-8.2,4.7c0,3.3,0,6.7,0,10c0,2.6,1.7,4.4,4,5.3c43.6,17.2,94.2,0.3,118.2-40.1
					c22.4-37.9,15.4-87.8-16.5-118.1C458.5,204,435,194.9,410.4,194.6c-7-0.1-7.1,10.9,0,10.9c51.3,0.7,92.3,47.1,83.8,98.5
					c-8.9,54.1-66.3,84.3-116.5,64.6c1.3,1.8,2.7,3.5,4,5.3c0-3.3,0-6.7,0-10c-2.7,1.6-5.5,3.2-8.2,4.7c44.4,19.9,97.4,1,116.7-44.5
					c17.6-41.3-0.5-90.9-40.6-111.1c-24.1-12.2-50.8-11.6-75.5-1.4c2.1,0.8,4.1,1.7,6.2,2.5C356.1,166.9,309.9,135,256,135
					s-100.1,31.9-124.3,79.1c2.1-0.8,4.1-1.7,6.2-2.5C95,194,44.7,209.3,23.8,252.3c-19.7,40.5-4.5,90.6,34.4,113.2
					c24.8,14.4,54.4,14.8,80.3,3.2c-2.7-1.6-5.5-3.2-8.2-4.7c0,3.3,0,6.7,0,10c1.3-1.8,2.7-3.5,4-5.3c-54.8,21.6-116.7-17-117.6-77
					c-0.8-59.3,58.7-99.9,113.9-81c2.2,0.8,5.1-0.5,6.2-2.5C161,165,206.1,136.9,256,136.9s94.9,28,119.1,71.3
					c1.1,2,3.9,3.3,6.2,2.5c9.5-3.2,19-5,29.1-5.2C417.5,205.4,417.5,194.5,410.4,194.6z"/>
			</g>
		</g>
	</g>
</g>
<g id="XMLID_144_">
	<path id="XMLID_182_" fill="#FCEE23" d="M278.1,387l-62.9-77.8l28.3-8.2l-9.7-59.9l62.9,77.8l-28.3,8.2L278.1,387z M226.9,312.8
		l40.5,50.1l-6.6-40.7l24.3-7l-40.5-50.1l6.6,40.7L226.9,312.8z"/>
</g>
<g id="XMLID_1_">
	<path id="XMLID_2_" fill="#FCEE23" d="M216.8,385.9l-30.9-38.3l13.9-4l-4.8-29.5l30.9,38.3l-13.9,4L216.8,385.9z M191.7,349.4
		l19.9,24.7l-3.2-20l12-3.4L200.4,326l3.2,20L191.7,349.4z"/>
</g>
<g id="XMLID_3_">
	<path id="XMLID_6_" fill="#FCEE23" d="M299.8,356.5l-13.9-4l30.9-38.3l-4.8,29.5l13.9,4l-30.9,38.3L299.8,356.5z M308.3,346l3.2-20
		l-19.9,24.7l12,3.4l-3.2,20l19.9-24.7L308.3,346z"/>
</g>
    </symbol>
    <symbol version="1.1" id="tornado" xmlns="http://www.w3.org/2000/svg" xmlns:xlink="http://www.w3.org/1999/xlink" x="0px" y="0px" xml:space="preserve" viewBox="0 0 512 512">
    <g id="XMLID_10_">
	<g id="XMLID_11_">
		<polygon id="XMLID_20_" fill-rule="evenodd" clip-rule="evenodd" fill="#F1F2F2" points="238.3,86.4 261.9,86.4 470.2,86.4 496.2,48.3 6,48.3 6,52.5 29.2,86.4 		"/>
		<polygon id="XMLID_17_" fill-rule="evenodd" clip-rule="evenodd" fill="#F1F2F2" points="249.1,239.5 225.5,239.5 101.1,239.5 118.4,264.9 225.5,264.9 249.1,264.9 
			355.4,264.9 372.7,239.5 		"/>
		<polygon id="XMLID_16_" fill-rule="evenodd" clip-rule="evenodd" fill="#F1F2F2" points="282.2,118.8 81.3,118.8 98.7,144.2 282.2,144.2 305.8,144.2 488.6,144.2 506,118.8 
			305.8,118.8 		"/>
		<polygon id="XMLID_15_" fill-rule="evenodd" clip-rule="evenodd" fill="#F1F2F2" points="173.9,414.2 150.3,414.2 127.9,414.2 161.8,463.7 195.6,414.2 		"/>
		<polygon id="XMLID_14_" fill-rule="evenodd" clip-rule="evenodd" fill="#F1F2F2" points="217.9,381.9 247.7,381.9 265.1,356.5 217.9,356.5 194.3,356.5 146.4,356.5 
			163.8,381.9 194.3,381.9 		"/>
		<polygon id="XMLID_13_" fill-rule="evenodd" clip-rule="evenodd" fill="#F1F2F2" points="261.9,176.6 238.3,176.6 62.8,176.6 80.2,201.9 238.3,201.9 261.9,201.9 419.2,201.9 
			436.5,176.6 		"/>
		<polygon id="XMLID_12_" fill-rule="evenodd" clip-rule="evenodd" fill="#F1F2F2" points="261.9,324.1 317.1,324.1 334.5,298.7 261.9,298.7 238.3,298.7 164.8,298.7 
			182.2,324.1 238.3,324.1 		"/>
	</g>
</g>
    </symbol>
    <symbol version="1.1" id="wind" xmlns="http://www.w3.org/2000/svg" xmlns:xlink="http://www.w3.org/1999/xlink" x="0px" y="0px" xml:space="preserve" viewBox="0 0 512 512">
    <g id="XMLID_18_">
	<g id="XMLID_46_">
		<g id="XMLID_49_">
			<path id="XMLID_52_" fill="#F2F2F2" d="M410.4,200.1c-10.4,0-20.7,1.8-30.5,5.4c-25.1-45.7-72.1-74-123.9-74
				c-51.7,0-98.8,28.2-123.9,74c-9.9-3.6-20.1-5.4-30.5-5.4c-49.8,0-90.3,40.5-90.3,90.3s40.5,90.3,90.3,90.3
				c11.8,0,23.4-2.3,34.2-6.8v-10c-10.7,5-22.3,7.7-34.2,7.7c-44.8,0-81.2-36.4-81.2-81.2s36.4-81.2,81.2-81.2
				c10.6,0,21,2.1,30.9,6.2l3.9,1.6l1.9-3.7c23-44.8,68.1-72.7,117.7-72.7s94.7,27.8,117.7,72.7l1.9,3.7l3.9-1.6
				c9.9-4.1,20.3-6.2,30.9-6.2c44.8,0,81.2,36.4,81.2,81.2s-36.4,81.2-81.2,81.2c-11.9,0-23.5-2.6-34.2-7.7v10
				c10.8,4.5,22.4,6.8,34.2,6.8c49.8,0,90.3-40.5,90.3-90.3S460.2,200.1,410.4,200.1z"/>
			<g id="XMLID_50_">
				<path id="XMLID_51_" fill="#F2F2F2" d="M410.4,194.6c-11,0.2-21.6,2-32,5.6c2.1,0.8,4.1,1.7,6.2,2.5c-26-46.5-75-76.7-128.6-76.7
					s-102.6,30.2-128.6,76.7c2.1-0.8,4.1-1.7,6.2-2.5C85.9,183.9,32.8,207,13.2,253.7C-5,297.2,12.4,348.9,53,372.9
					c25.6,15.1,56.8,17.2,84.3,6.3c2.3-0.9,4-2.7,4-5.3c0-3.3,0-6.7,0-10c0-4.5-4.6-6.4-8.2-4.7c-51.6,23.1-110.6-17.3-107-73.8
					c1.5-24.6,15.6-47.3,36.7-59.9c22.6-13.6,48.3-13,72.2-3.2c2.1,0.9,5.2-0.6,6.2-2.5C163.6,175.9,205.8,146,256,146
					s92.4,29.8,114.9,73.7c1,1.9,4.1,3.4,6.2,2.5c23.9-9.9,49.6-10.4,72.2,3.2c21.1,12.6,35.2,35.4,36.7,59.9
					c3.5,56.5-55.5,96.9-107,73.8c-3.7-1.6-8.2,0.2-8.2,4.7c0,3.3,0,6.7,0,10c0,2.6,1.7,4.4,4,5.3c43.6,17.2,94.2,0.3,118.2-40.1
					c22.4-37.9,15.4-87.8-16.5-118.1C458.5,204,435,194.9,410.4,194.6c-7-0.1-7.1,10.9,0,10.9c51.3,0.7,92.3,47.1,83.8,98.5
					c-8.9,54.1-66.3,84.3-116.5,64.6c1.3,1.8,2.7,3.5,4,5.3c0-3.3,0-6.7,0-10c-2.7,1.6-5.5,3.2-8.2,4.7c44.4,19.9,97.4,1,116.7-44.5
					c17.6-41.3-0.5-90.9-40.6-111.1c-24.1-12.2-50.8-11.6-75.5-1.4c2.1,0.8,4.1,1.7,6.2,2.5C356.1,166.9,309.9,135,256,135
					s-100.1,31.9-124.3,79.1c2.1-0.8,4.1-1.7,6.2-2.5C95,194,44.7,209.3,23.8,252.3c-19.7,40.5-4.5,90.6,34.4,113.2
					c24.8,14.4,54.4,14.8,80.3,3.2c-2.7-1.6-5.5-3.2-8.2-4.7c0,3.3,0,6.7,0,10c1.3-1.8,2.7-3.5,4-5.3c-54.8,21.6-116.7-17-117.6-77
					c-0.8-59.3,58.7-99.9,113.9-81c2.2,0.8,5.1-0.5,6.2-2.5C161,165,206.1,136.9,256,136.9s94.9,28,119.1,71.3
					c1.1,2,3.9,3.3,6.2,2.5c9.5-3.2,19-5,29.1-5.2C417.5,205.4,417.5,194.5,410.4,194.6z"/>
			</g>
		</g>
	</g>
</g>
<g id="XMLID_48_">
	<path id="XMLID_57_" fill="#F1F2F2" d="M231.9,315.4l-35.5,35.2l34.9,35.5v-18.2c0,0,73.3,20.8,84.3-41.5c-8.1,6.3-51.9,29.7-83.7,6.3
		V315.4z"/>
</g>
    </symbol>
</svg> 